<svg width="231" height="207" viewBox="0 0 231 207" fill="none" xmlns="http://www.w3.org/2000/svg">
<g filter="url(#filter0_d_148_19)">
<rect x="20.8333" y="16.1389" width="190.139" height="166.5" rx="16" fill="url(#paint0_linear_148_19)" shape-rendering="crispEdges"/>
<rect x="21.3333" y="16.6389" width="189.139" height="165.5" rx="15.5" stroke="white" stroke-opacity="0.5" shape-rendering="crispEdges"/>
</g>
<path d="M83.7642 129.024C83.4549 128.374 83.0069 127.872 82.4202 127.52C81.8336 127.158 81.1509 126.976 80.3722 126.976C79.5936 126.976 78.8896 127.158 78.2602 127.52C77.6416 127.872 77.1509 128.384 76.7882 129.056C76.4362 129.718 76.2602 130.486 76.2602 131.36C76.2602 132.235 76.4362 133.003 76.7882 133.664C77.1509 134.326 77.6416 134.838 78.2602 135.2C78.8896 135.552 79.5936 135.728 80.3722 135.728C81.4602 135.728 82.3562 135.403 83.0602 134.752C83.7642 134.102 84.1749 133.222 84.2922 132.112H79.8442V130.928H85.8442V132.048C85.7589 132.966 85.4709 133.808 84.9802 134.576C84.4896 135.334 83.8442 135.936 83.0442 136.384C82.2442 136.822 81.3536 137.04 80.3722 137.04C79.3376 137.04 78.3936 136.8 77.5402 136.32C76.6869 135.83 76.0096 135.152 75.5082 134.288C75.0176 133.424 74.7722 132.448 74.7722 131.36C74.7722 130.272 75.0176 129.296 75.5082 128.432C76.0096 127.558 76.6869 126.88 77.5402 126.4C78.3936 125.91 79.3376 125.664 80.3722 125.664C81.5562 125.664 82.6016 125.958 83.5082 126.544C84.4256 127.131 85.0922 127.958 85.5082 129.024H83.7642ZM95.7694 132.224C95.7694 132.502 95.7534 132.795 95.7214 133.104H88.7134C88.7667 133.968 89.06 134.646 89.5934 135.136C90.1374 135.616 90.7934 135.856 91.5614 135.856C92.1907 135.856 92.7134 135.712 93.1294 135.424C93.556 135.126 93.8547 134.731 94.0254 134.24H95.5934C95.3587 135.083 94.8894 135.771 94.1854 136.304C93.4814 136.827 92.6067 137.088 91.5614 137.088C90.7294 137.088 89.9827 136.902 89.3214 136.528C88.6707 136.155 88.1587 135.627 87.7854 134.944C87.412 134.251 87.2254 133.451 87.2254 132.544C87.2254 131.638 87.4067 130.843 87.7694 130.16C88.132 129.478 88.6387 128.955 89.2894 128.592C89.9507 128.219 90.708 128.032 91.5614 128.032C92.3934 128.032 93.1294 128.214 93.7694 128.576C94.4094 128.939 94.9 129.44 95.2414 130.08C95.5934 130.71 95.7694 131.424 95.7694 132.224ZM94.2654 131.92C94.2654 131.366 94.1427 130.891 93.8974 130.496C93.652 130.091 93.316 129.787 92.8894 129.584C92.4734 129.371 92.0094 129.264 91.4974 129.264C90.7614 129.264 90.132 129.499 89.6094 129.968C89.0974 130.438 88.804 131.088 88.7294 131.92H94.2654ZM100.795 137.088C100.123 137.088 99.5206 136.976 98.9872 136.752C98.4539 136.518 98.0326 136.198 97.7232 135.792C97.4139 135.376 97.2432 134.902 97.2112 134.368H98.7152C98.7579 134.806 98.9606 135.163 99.3232 135.44C99.6966 135.718 100.182 135.856 100.779 135.856C101.334 135.856 101.771 135.734 102.091 135.488C102.411 135.243 102.571 134.934 102.571 134.56C102.571 134.176 102.401 133.894 102.059 133.712C101.718 133.52 101.19 133.334 100.475 133.152C99.8246 132.982 99.2912 132.811 98.8752 132.64C98.4699 132.459 98.1179 132.198 97.8192 131.856C97.5312 131.504 97.3872 131.046 97.3872 130.48C97.3872 130.032 97.5206 129.622 97.7872 129.248C98.0539 128.875 98.4326 128.582 98.9232 128.368C99.4139 128.144 99.9739 128.032 100.603 128.032C101.574 128.032 102.358 128.278 102.955 128.768C103.553 129.259 103.873 129.931 103.915 130.784H102.459C102.427 130.326 102.241 129.958 101.899 129.68C101.569 129.403 101.121 129.264 100.555 129.264C100.033 129.264 99.6166 129.376 99.3072 129.6C98.9979 129.824 98.8432 130.118 98.8432 130.48C98.8432 130.768 98.9339 131.008 99.1152 131.2C99.3072 131.382 99.5419 131.531 99.8192 131.648C100.107 131.755 100.502 131.878 101.003 132.016C101.633 132.187 102.145 132.358 102.539 132.528C102.934 132.688 103.27 132.934 103.547 133.264C103.835 133.595 103.985 134.027 103.995 134.56C103.995 135.04 103.862 135.472 103.595 135.856C103.329 136.24 102.95 136.544 102.459 136.768C101.979 136.982 101.425 137.088 100.795 137.088ZM107.827 129.376V134.544C107.827 134.971 107.917 135.275 108.099 135.456C108.28 135.627 108.595 135.712 109.043 135.712H110.115V136.944H108.803C107.992 136.944 107.384 136.758 106.979 136.384C106.573 136.011 106.371 135.398 106.371 134.544V129.376H105.235V128.176H106.371V125.968H107.827V128.176H110.115V129.376H107.827ZM111.335 132.528C111.335 131.632 111.516 130.848 111.879 130.176C112.241 129.494 112.737 128.966 113.367 128.592C114.007 128.219 114.716 128.032 115.495 128.032C116.263 128.032 116.929 128.198 117.495 128.528C118.06 128.859 118.481 129.275 118.759 129.776V128.176H120.231V136.944H118.759V135.312C118.471 135.824 118.039 136.251 117.463 136.592C116.897 136.923 116.236 137.088 115.479 137.088C114.7 137.088 113.996 136.896 113.367 136.512C112.737 136.128 112.241 135.59 111.879 134.896C111.516 134.203 111.335 133.414 111.335 132.528ZM118.759 132.544C118.759 131.883 118.625 131.307 118.359 130.816C118.092 130.326 117.729 129.952 117.271 129.696C116.823 129.43 116.327 129.296 115.783 129.296C115.239 129.296 114.743 129.424 114.295 129.68C113.847 129.936 113.489 130.31 113.223 130.8C112.956 131.291 112.823 131.867 112.823 132.528C112.823 133.2 112.956 133.787 113.223 134.288C113.489 134.779 113.847 135.158 114.295 135.424C114.743 135.68 115.239 135.808 115.783 135.808C116.327 135.808 116.823 135.68 117.271 135.424C117.729 135.158 118.092 134.779 118.359 134.288C118.625 133.787 118.759 133.206 118.759 132.544ZM113.719 127.232C113.793 126.688 113.969 126.272 114.247 125.984C114.535 125.696 114.892 125.552 115.319 125.552C115.521 125.552 115.692 125.59 115.831 125.664C115.98 125.728 116.156 125.824 116.359 125.952C116.508 126.059 116.641 126.144 116.759 126.208C116.876 126.262 117.004 126.288 117.143 126.288C117.324 126.288 117.479 126.23 117.607 126.112C117.735 125.995 117.815 125.824 117.847 125.6H118.679C118.615 126.134 118.439 126.544 118.151 126.832C117.863 127.12 117.505 127.264 117.079 127.264C116.876 127.264 116.695 127.232 116.535 127.168C116.385 127.094 116.215 126.987 116.023 126.848C115.852 126.742 115.713 126.662 115.607 126.608C115.511 126.555 115.393 126.528 115.255 126.528C115.073 126.528 114.919 126.587 114.791 126.704C114.673 126.822 114.599 126.998 114.567 127.232H113.719ZM126.515 137.088C125.694 137.088 124.947 136.902 124.275 136.528C123.614 136.155 123.091 135.627 122.707 134.944C122.334 134.251 122.147 133.451 122.147 132.544C122.147 131.648 122.339 130.859 122.723 130.176C123.118 129.483 123.651 128.955 124.323 128.592C124.995 128.219 125.747 128.032 126.579 128.032C127.411 128.032 128.163 128.219 128.835 128.592C129.507 128.955 130.035 129.478 130.419 130.16C130.814 130.843 131.011 131.638 131.011 132.544C131.011 133.451 130.809 134.251 130.403 134.944C130.009 135.627 129.47 136.155 128.787 136.528C128.105 136.902 127.347 137.088 126.515 137.088ZM126.515 135.808C127.038 135.808 127.529 135.686 127.987 135.44C128.446 135.195 128.814 134.827 129.091 134.336C129.379 133.846 129.523 133.248 129.523 132.544C129.523 131.84 129.385 131.243 129.107 130.752C128.83 130.262 128.467 129.899 128.019 129.664C127.571 129.419 127.086 129.296 126.563 129.296C126.03 129.296 125.539 129.419 125.091 129.664C124.654 129.899 124.302 130.262 124.035 130.752C123.769 131.243 123.635 131.84 123.635 132.544C123.635 133.259 123.763 133.862 124.019 134.352C124.286 134.843 124.638 135.211 125.075 135.456C125.513 135.691 125.993 135.808 126.515 135.808ZM136.647 132.528C136.647 131.632 136.829 130.848 137.191 130.176C137.554 129.494 138.05 128.966 138.679 128.592C139.319 128.219 140.034 128.032 140.823 128.032C141.506 128.032 142.141 128.192 142.727 128.512C143.314 128.822 143.762 129.232 144.071 129.744V125.104H145.543V136.944H144.071V135.296C143.783 135.819 143.357 136.251 142.791 136.592C142.226 136.923 141.565 137.088 140.807 137.088C140.029 137.088 139.319 136.896 138.679 136.512C138.05 136.128 137.554 135.59 137.191 134.896C136.829 134.203 136.647 133.414 136.647 132.528ZM144.071 132.544C144.071 131.883 143.938 131.307 143.671 130.816C143.405 130.326 143.042 129.952 142.583 129.696C142.135 129.43 141.639 129.296 141.095 129.296C140.551 129.296 140.055 129.424 139.607 129.68C139.159 129.936 138.802 130.31 138.535 130.8C138.269 131.291 138.135 131.867 138.135 132.528C138.135 133.2 138.269 133.787 138.535 134.288C138.802 134.779 139.159 135.158 139.607 135.424C140.055 135.68 140.551 135.808 141.095 135.808C141.639 135.808 142.135 135.68 142.583 135.424C143.042 135.158 143.405 134.779 143.671 134.288C143.938 133.787 144.071 133.206 144.071 132.544ZM156.004 132.224C156.004 132.502 155.988 132.795 155.956 133.104H148.948C149.001 133.968 149.294 134.646 149.828 135.136C150.372 135.616 151.028 135.856 151.796 135.856C152.425 135.856 152.948 135.712 153.364 135.424C153.79 135.126 154.089 134.731 154.26 134.24H155.828C155.593 135.083 155.124 135.771 154.42 136.304C153.716 136.827 152.841 137.088 151.796 137.088C150.964 137.088 150.217 136.902 149.556 136.528C148.905 136.155 148.393 135.627 148.02 134.944C147.646 134.251 147.46 133.451 147.46 132.544C147.46 131.638 147.641 130.843 148.004 130.16C148.366 129.478 148.873 128.955 149.524 128.592C150.185 128.219 150.942 128.032 151.796 128.032C152.628 128.032 153.364 128.214 154.004 128.576C154.644 128.939 155.134 129.44 155.476 130.08C155.828 130.71 156.004 131.424 156.004 132.224ZM154.5 131.92C154.5 131.366 154.377 130.891 154.132 130.496C153.886 130.091 153.55 129.787 153.124 129.584C152.708 129.371 152.244 129.264 151.732 129.264C150.996 129.264 150.366 129.499 149.844 129.968C149.332 130.438 149.038 131.088 148.964 131.92H154.5ZM71.4207 152.36C71.4207 151.272 71.666 150.296 72.1567 149.432C72.6473 148.558 73.314 147.875 74.1567 147.384C75.01 146.894 75.954 146.648 76.9887 146.648C78.2047 146.648 79.266 146.942 80.1727 147.528C81.0793 148.115 81.7407 148.947 82.1567 150.024H80.4127C80.1033 149.352 79.6553 148.835 79.0687 148.472C78.4927 148.11 77.7993 147.928 76.9887 147.928C76.21 147.928 75.5113 148.11 74.8927 148.472C74.274 148.835 73.7887 149.352 73.4367 150.024C73.0847 150.686 72.9087 151.464 72.9087 152.36C72.9087 153.246 73.0847 154.024 73.4367 154.696C73.7887 155.358 74.274 155.87 74.8927 156.232C75.5113 156.595 76.21 156.776 76.9887 156.776C77.7993 156.776 78.4927 156.6 79.0687 156.248C79.6553 155.886 80.1033 155.368 80.4127 154.696H82.1567C81.7407 155.763 81.0793 156.59 80.1727 157.176C79.266 157.752 78.2047 158.04 76.9887 158.04C75.954 158.04 75.01 157.8 74.1567 157.32C73.314 156.83 72.6473 156.152 72.1567 155.288C71.666 154.424 71.4207 153.448 71.4207 152.36ZM88.148 158.088C87.3267 158.088 86.58 157.902 85.908 157.528C85.2467 157.155 84.724 156.627 84.34 155.944C83.9667 155.251 83.78 154.451 83.78 153.544C83.78 152.648 83.972 151.859 84.356 151.176C84.7507 150.483 85.284 149.955 85.956 149.592C86.628 149.219 87.38 149.032 88.212 149.032C89.044 149.032 89.796 149.219 90.468 149.592C91.14 149.955 91.668 150.478 92.052 151.16C92.4467 151.843 92.644 152.638 92.644 153.544C92.644 154.451 92.4414 155.251 92.036 155.944C91.6414 156.627 91.1027 157.155 90.42 157.528C89.7374 157.902 88.98 158.088 88.148 158.088ZM88.148 156.808C88.6707 156.808 89.1614 156.686 89.62 156.44C90.0787 156.195 90.4467 155.827 90.724 155.336C91.012 154.846 91.156 154.248 91.156 153.544C91.156 152.84 91.0174 152.243 90.74 151.752C90.4627 151.262 90.1 150.899 89.652 150.664C89.204 150.419 88.7187 150.296 88.196 150.296C87.6627 150.296 87.172 150.419 86.724 150.664C86.2867 150.899 85.9347 151.262 85.668 151.752C85.4014 152.243 85.268 152.84 85.268 153.544C85.268 154.259 85.396 154.862 85.652 155.352C85.9187 155.843 86.2707 156.211 86.708 156.456C87.1454 156.691 87.6254 156.808 88.148 156.808ZM96.0144 150.808C96.3131 150.286 96.7504 149.859 97.3264 149.528C97.9024 149.198 98.5584 149.032 99.2944 149.032C100.084 149.032 100.793 149.219 101.422 149.592C102.052 149.966 102.548 150.494 102.91 151.176C103.273 151.848 103.454 152.632 103.454 153.528C103.454 154.414 103.273 155.203 102.91 155.896C102.548 156.59 102.046 157.128 101.406 157.512C100.777 157.896 100.073 158.088 99.2944 158.088C98.5371 158.088 97.8704 157.923 97.2944 157.592C96.7291 157.262 96.3024 156.84 96.0144 156.328V157.944H94.5584V146.104H96.0144V150.808ZM101.966 153.528C101.966 152.867 101.833 152.291 101.566 151.8C101.3 151.31 100.937 150.936 100.478 150.68C100.03 150.424 99.5344 150.296 98.9904 150.296C98.4571 150.296 97.9611 150.43 97.5024 150.696C97.0544 150.952 96.6917 151.331 96.4144 151.832C96.1477 152.323 96.0144 152.894 96.0144 153.544C96.0144 154.206 96.1477 154.787 96.4144 155.288C96.6917 155.779 97.0544 156.158 97.5024 156.424C97.9611 156.68 98.4571 156.808 98.9904 156.808C99.5344 156.808 100.03 156.68 100.478 156.424C100.937 156.158 101.3 155.779 101.566 155.288C101.833 154.787 101.966 154.2 101.966 153.528ZM106.827 150.6C107.083 150.099 107.446 149.71 107.915 149.432C108.395 149.155 108.976 149.016 109.659 149.016V150.52H109.275C107.643 150.52 106.827 151.406 106.827 153.176V157.944H105.371V149.176H106.827V150.6ZM110.796 153.528C110.796 152.632 110.977 151.848 111.34 151.176C111.702 150.494 112.198 149.966 112.828 149.592C113.468 149.219 114.177 149.032 114.956 149.032C115.724 149.032 116.39 149.198 116.956 149.528C117.521 149.859 117.942 150.275 118.22 150.776V149.176H119.692V157.944H118.22V156.312C117.932 156.824 117.5 157.251 116.924 157.592C116.358 157.923 115.697 158.088 114.94 158.088C114.161 158.088 113.457 157.896 112.828 157.512C112.198 157.128 111.702 156.59 111.34 155.896C110.977 155.203 110.796 154.414 110.796 153.528ZM118.22 153.544C118.22 152.883 118.086 152.307 117.82 151.816C117.553 151.326 117.19 150.952 116.732 150.696C116.284 150.43 115.788 150.296 115.244 150.296C114.7 150.296 114.204 150.424 113.756 150.68C113.308 150.936 112.95 151.31 112.684 151.8C112.417 152.291 112.284 152.867 112.284 153.528C112.284 154.2 112.417 154.787 112.684 155.288C112.95 155.779 113.308 156.158 113.756 156.424C114.204 156.68 114.7 156.808 115.244 156.808C115.788 156.808 116.284 156.68 116.732 156.424C117.19 156.158 117.553 155.779 117.82 155.288C118.086 154.787 118.22 154.206 118.22 153.544ZM126.424 149.016C127.491 149.016 128.355 149.342 129.016 149.992C129.677 150.632 130.008 151.56 130.008 152.776V157.944H128.568V152.984C128.568 152.11 128.349 151.443 127.912 150.984C127.475 150.515 126.877 150.28 126.12 150.28C125.352 150.28 124.739 150.52 124.28 151C123.832 151.48 123.608 152.179 123.608 153.096V157.944H122.152V149.176H123.608V150.424C123.896 149.976 124.285 149.63 124.776 149.384C125.277 149.139 125.827 149.016 126.424 149.016ZM136.115 156.856C136.755 156.856 137.288 156.707 137.715 156.408C138.141 156.11 138.435 155.683 138.595 155.128H140.163C139.949 155.96 139.528 156.643 138.899 157.176C138.28 157.699 137.501 157.998 136.563 158.072V158.872C137.192 158.862 137.693 158.995 138.067 159.272C138.44 159.55 138.627 159.944 138.627 160.456C138.627 160.958 138.445 161.358 138.083 161.656C137.72 161.955 137.251 162.104 136.675 162.104H134.835V161.16H136.387C136.739 161.16 136.995 161.107 137.155 161C137.325 160.894 137.411 160.712 137.411 160.456C137.411 160.211 137.325 160.035 137.155 159.928C136.995 159.822 136.739 159.768 136.387 159.768H135.587V158.056C134.851 157.982 134.2 157.752 133.635 157.368C133.069 156.974 132.627 156.451 132.307 155.8C131.997 155.139 131.843 154.387 131.843 153.544C131.843 152.638 132.024 151.848 132.387 151.176C132.749 150.494 133.251 149.966 133.891 149.592C134.541 149.219 135.283 149.032 136.115 149.032C137.192 149.032 138.077 149.294 138.771 149.816C139.475 150.339 139.939 151.064 140.163 151.992H138.595C138.445 151.459 138.152 151.038 137.715 150.728C137.288 150.419 136.755 150.264 136.115 150.264C135.283 150.264 134.611 150.552 134.099 151.128C133.587 151.694 133.331 152.499 133.331 153.544C133.331 154.6 133.587 155.416 134.099 155.992C134.611 156.568 135.283 156.856 136.115 156.856ZM141.561 153.528C141.561 152.632 141.743 151.848 142.105 151.176C142.468 150.494 142.964 149.966 143.593 149.592C144.233 149.219 144.943 149.032 145.721 149.032C146.489 149.032 147.156 149.198 147.721 149.528C148.287 149.859 148.708 150.275 148.985 150.776V149.176H150.457V157.944H148.985V156.312C148.697 156.824 148.265 157.251 147.689 157.592C147.124 157.923 146.463 158.088 145.705 158.088C144.927 158.088 144.223 157.896 143.593 157.512C142.964 157.128 142.468 156.59 142.105 155.896C141.743 155.203 141.561 154.414 141.561 153.528ZM148.985 153.544C148.985 152.883 148.852 152.307 148.585 151.816C148.319 151.326 147.956 150.952 147.497 150.696C147.049 150.43 146.553 150.296 146.009 150.296C145.465 150.296 144.969 150.424 144.521 150.68C144.073 150.936 143.716 151.31 143.449 151.8C143.183 152.291 143.049 152.867 143.049 153.528C143.049 154.2 143.183 154.787 143.449 155.288C143.716 155.779 144.073 156.158 144.521 156.424C144.969 156.68 145.465 156.808 146.009 156.808C146.553 156.808 147.049 156.68 147.497 156.424C147.956 156.158 148.319 155.779 148.585 155.288C148.852 154.787 148.985 154.206 148.985 153.544ZM156.022 158.088C155.35 158.088 154.747 157.976 154.214 157.752C153.68 157.518 153.259 157.198 152.95 156.792C152.64 156.376 152.47 155.902 152.438 155.368H153.942C153.984 155.806 154.187 156.163 154.55 156.44C154.923 156.718 155.408 156.856 156.006 156.856C156.56 156.856 156.998 156.734 157.318 156.488C157.638 156.243 157.798 155.934 157.798 155.56C157.798 155.176 157.627 154.894 157.286 154.712C156.944 154.52 156.416 154.334 155.702 154.152C155.051 153.982 154.518 153.811 154.102 153.64C153.696 153.459 153.344 153.198 153.046 152.856C152.758 152.504 152.614 152.046 152.614 151.48C152.614 151.032 152.747 150.622 153.014 150.248C153.28 149.875 153.659 149.582 154.15 149.368C154.64 149.144 155.2 149.032 155.83 149.032C156.8 149.032 157.584 149.278 158.182 149.768C158.779 150.259 159.099 150.931 159.142 151.784H157.686C157.654 151.326 157.467 150.958 157.126 150.68C156.795 150.403 156.347 150.264 155.782 150.264C155.259 150.264 154.843 150.376 154.534 150.6C154.224 150.824 154.07 151.118 154.07 151.48C154.07 151.768 154.16 152.008 154.342 152.2C154.534 152.382 154.768 152.531 155.046 152.648C155.334 152.755 155.728 152.878 156.23 153.016C156.859 153.187 157.371 153.358 157.766 153.528C158.16 153.688 158.496 153.934 158.774 154.264C159.062 154.595 159.211 155.027 159.222 155.56C159.222 156.04 159.088 156.472 158.822 156.856C158.555 157.24 158.176 157.544 157.686 157.768C157.206 157.982 156.651 158.088 156.022 158.088Z" fill="black"/>
<circle cx="115.903" cy="72.1528" r="31.3472" fill="#283990"/>
<path d="M101.771 58.0213H131.063C131.494 58.0213 131.908 58.1927 132.213 58.4979C132.518 58.8031 132.69 59.217 132.69 59.6486V85.6856C132.69 86.1172 132.518 86.5311 132.213 86.8363C131.908 87.1415 131.494 87.3129 131.063 87.3129H101.771C101.339 87.3129 100.925 87.1415 100.62 86.8363C100.315 86.5311 100.144 86.1172 100.144 85.6856V59.6486C100.144 59.217 100.315 58.8031 100.62 58.4979C100.925 58.1927 101.339 58.0213 101.771 58.0213V58.0213ZM103.398 61.2759V84.0583H129.435V61.2759H103.398ZM110.721 75.9217H119.671C119.887 75.9217 120.094 75.836 120.247 75.6834C120.399 75.5308 120.485 75.3239 120.485 75.1081C120.485 74.8923 120.399 74.6853 120.247 74.5327C120.094 74.3801 119.887 74.2944 119.671 74.2944H113.162C112.083 74.2944 111.048 73.8658 110.285 73.1028C109.522 72.3399 109.094 71.3051 109.094 70.2261C109.094 69.1471 109.522 68.1124 110.285 67.3494C111.048 66.5865 112.083 66.1578 113.162 66.1578H114.789V62.9032H118.044V66.1578H122.112V69.4125H113.162C112.946 69.4125 112.739 69.4982 112.587 69.6508C112.434 69.8034 112.348 70.0103 112.348 70.2261C112.348 70.4419 112.434 70.6489 112.587 70.8015C112.739 70.954 112.946 71.0398 113.162 71.0398H119.671C120.75 71.0398 121.785 71.4684 122.548 72.2313C123.311 72.9943 123.74 74.0291 123.74 75.1081C123.74 76.187 123.311 77.2218 122.548 77.9848C121.785 78.7477 120.75 79.1763 119.671 79.1763H118.044V82.431H114.789V79.1763H110.721V75.9217Z" fill="#CED6FF"/>
<defs>
<filter id="filter0_d_148_19" x="0.833252" y="0.138885" width="230.139" height="206.5" filterUnits="userSpaceOnUse" color-interpolation-filters="sRGB">
<feFlood flood-opacity="0" result="BackgroundImageFix"/>
<feColorMatrix in="SourceAlpha" type="matrix" values="0 0 0 0 0 0 0 0 0 0 0 0 0 0 0 0 0 0 127 0" result="hardAlpha"/>
<feOffset dy="4"/>
<feGaussianBlur stdDeviation="10"/>
<feComposite in2="hardAlpha" operator="out"/>
<feColorMatrix type="matrix" values="0 0 0 0 0 0 0 0 0 0 0 0 0 0 0 0 0 0 0.1 0"/>
<feBlend mode="normal" in2="BackgroundImageFix" result="effect1_dropShadow_148_19"/>
<feBlend mode="normal" in="SourceGraphic" in2="effect1_dropShadow_148_19" result="shape"/>
</filter>
<linearGradient id="paint0_linear_148_19" x1="20.8333" y1="182.639" x2="214.266" y2="28.4563" gradientUnits="userSpaceOnUse">
<stop stop-color="white"/>
<stop offset="1" stop-color="white" stop-opacity="0"/>
</linearGradient>
</defs>
</svg>
