<svg width="231" height="208" viewBox="0 0 231 208" fill="none" xmlns="http://www.w3.org/2000/svg">
<g filter="url(#filter0_d_148_18)">
<rect x="20" y="16.8611" width="190.139" height="166.5" rx="16" fill="url(#paint0_linear_148_18)" shape-rendering="crispEdges"/>
<rect x="20.5" y="17.3611" width="189.139" height="165.5" rx="15.5" stroke="white" stroke-opacity="0.5" shape-rendering="crispEdges"/>
</g>
<path d="M79.0134 129.747C78.704 129.096 78.256 128.595 77.6694 128.243C77.0827 127.88 76.4 127.699 75.6214 127.699C74.8427 127.699 74.1387 127.88 73.5094 128.243C72.8907 128.595 72.4 129.107 72.0374 129.779C71.6854 130.44 71.5094 131.208 71.5094 132.083C71.5094 132.957 71.6854 133.725 72.0374 134.387C72.4 135.048 72.8907 135.56 73.5094 135.923C74.1387 136.275 74.8427 136.451 75.6214 136.451C76.7094 136.451 77.6054 136.125 78.3094 135.475C79.0134 134.824 79.424 133.944 79.5414 132.835H75.0934V131.651H81.0934V132.771C81.008 133.688 80.72 134.531 80.2294 135.299C79.7387 136.056 79.0934 136.659 78.2934 137.107C77.4934 137.544 76.6027 137.763 75.6214 137.763C74.5867 137.763 73.6427 137.523 72.7894 137.043C71.936 136.552 71.2587 135.875 70.7574 135.011C70.2667 134.147 70.0214 133.171 70.0214 132.083C70.0214 130.995 70.2667 130.019 70.7574 129.155C71.2587 128.28 71.936 127.603 72.7894 127.123C73.6427 126.632 74.5867 126.387 75.6214 126.387C76.8054 126.387 77.8507 126.68 78.7574 127.267C79.6747 127.853 80.3414 128.68 80.7574 129.747H79.0134ZM91.0185 132.947C91.0185 133.224 91.0025 133.517 90.9705 133.827H83.9625C84.0158 134.691 84.3092 135.368 84.8425 135.859C85.3865 136.339 86.0425 136.579 86.8105 136.579C87.4398 136.579 87.9625 136.435 88.3785 136.147C88.8052 135.848 89.1038 135.453 89.2745 134.963H90.8425C90.6078 135.805 90.1385 136.493 89.4345 137.027C88.7305 137.549 87.8558 137.811 86.8105 137.811C85.9785 137.811 85.2318 137.624 84.5705 137.251C83.9198 136.877 83.4078 136.349 83.0345 135.667C82.6612 134.973 82.4745 134.173 82.4745 133.267C82.4745 132.36 82.6558 131.565 83.0185 130.883C83.3812 130.2 83.8878 129.677 84.5385 129.315C85.1998 128.941 85.9572 128.755 86.8105 128.755C87.6425 128.755 88.3785 128.936 89.0185 129.299C89.6585 129.661 90.1492 130.163 90.4905 130.803C90.8425 131.432 91.0185 132.147 91.0185 132.947ZM89.5145 132.643C89.5145 132.088 89.3918 131.613 89.1465 131.219C88.9012 130.813 88.5652 130.509 88.1385 130.307C87.7225 130.093 87.2585 129.987 86.7465 129.987C86.0105 129.987 85.3812 130.221 84.8585 130.691C84.3465 131.16 84.0532 131.811 83.9785 132.643H89.5145ZM96.0444 137.811C95.3724 137.811 94.7697 137.699 94.2364 137.475C93.703 137.24 93.2817 136.92 92.9724 136.515C92.663 136.099 92.4924 135.624 92.4604 135.091H93.9644C94.007 135.528 94.2097 135.885 94.5724 136.163C94.9457 136.44 95.431 136.579 96.0284 136.579C96.583 136.579 97.0204 136.456 97.3404 136.211C97.6604 135.965 97.8204 135.656 97.8204 135.283C97.8204 134.899 97.6497 134.616 97.3084 134.435C96.967 134.243 96.439 134.056 95.7244 133.875C95.0737 133.704 94.5404 133.533 94.1244 133.363C93.719 133.181 93.367 132.92 93.0684 132.579C92.7804 132.227 92.6364 131.768 92.6364 131.203C92.6364 130.755 92.7697 130.344 93.0364 129.971C93.303 129.597 93.6817 129.304 94.1724 129.091C94.663 128.867 95.223 128.755 95.8524 128.755C96.823 128.755 97.607 129 98.2044 129.491C98.8017 129.981 99.1217 130.653 99.1644 131.507H97.7084C97.6764 131.048 97.4897 130.68 97.1484 130.403C96.8177 130.125 96.3697 129.987 95.8044 129.987C95.2817 129.987 94.8657 130.099 94.5564 130.323C94.247 130.547 94.0924 130.84 94.0924 131.203C94.0924 131.491 94.183 131.731 94.3644 131.923C94.5564 132.104 94.791 132.253 95.0684 132.371C95.3564 132.477 95.751 132.6 96.2524 132.739C96.8817 132.909 97.3937 133.08 97.7884 133.251C98.183 133.411 98.519 133.656 98.7964 133.987C99.0844 134.317 99.2337 134.749 99.2444 135.283C99.2444 135.763 99.111 136.195 98.8444 136.579C98.5777 136.963 98.199 137.267 97.7084 137.491C97.2284 137.704 96.6737 137.811 96.0444 137.811ZM103.076 130.099V135.267C103.076 135.693 103.166 135.997 103.348 136.179C103.529 136.349 103.844 136.435 104.292 136.435H105.364V137.667H104.052C103.241 137.667 102.633 137.48 102.228 137.107C101.822 136.733 101.62 136.12 101.62 135.267V130.099H100.484V128.899H101.62V126.691H103.076V128.899H105.364V130.099H103.076ZM106.584 133.251C106.584 132.355 106.765 131.571 107.128 130.899C107.491 130.216 107.987 129.688 108.616 129.315C109.256 128.941 109.965 128.755 110.744 128.755C111.512 128.755 112.179 128.92 112.744 129.251C113.309 129.581 113.731 129.997 114.008 130.499V128.899H115.48V137.667H114.008V136.035C113.72 136.547 113.288 136.973 112.712 137.315C112.147 137.645 111.485 137.811 110.728 137.811C109.949 137.811 109.245 137.619 108.616 137.235C107.987 136.851 107.491 136.312 107.128 135.619C106.765 134.925 106.584 134.136 106.584 133.251ZM114.008 133.267C114.008 132.605 113.875 132.029 113.608 131.539C113.341 131.048 112.979 130.675 112.52 130.419C112.072 130.152 111.576 130.019 111.032 130.019C110.488 130.019 109.992 130.147 109.544 130.403C109.096 130.659 108.739 131.032 108.472 131.523C108.205 132.013 108.072 132.589 108.072 133.251C108.072 133.923 108.205 134.509 108.472 135.011C108.739 135.501 109.096 135.88 109.544 136.147C109.992 136.403 110.488 136.531 111.032 136.531C111.576 136.531 112.072 136.403 112.52 136.147C112.979 135.88 113.341 135.501 113.608 135.011C113.875 134.509 114.008 133.928 114.008 133.267ZM108.968 127.955C109.043 127.411 109.219 126.995 109.496 126.707C109.784 126.419 110.141 126.275 110.568 126.275C110.771 126.275 110.941 126.312 111.08 126.387C111.229 126.451 111.405 126.547 111.608 126.675C111.757 126.781 111.891 126.867 112.008 126.931C112.125 126.984 112.253 127.011 112.392 127.011C112.573 127.011 112.728 126.952 112.856 126.835C112.984 126.717 113.064 126.547 113.096 126.323H113.928C113.864 126.856 113.688 127.267 113.4 127.555C113.112 127.843 112.755 127.987 112.328 127.987C112.125 127.987 111.944 127.955 111.784 127.891C111.635 127.816 111.464 127.709 111.272 127.571C111.101 127.464 110.963 127.384 110.856 127.331C110.76 127.277 110.643 127.251 110.504 127.251C110.323 127.251 110.168 127.309 110.04 127.427C109.923 127.544 109.848 127.72 109.816 127.955H108.968ZM121.764 137.811C120.943 137.811 120.196 137.624 119.524 137.251C118.863 136.877 118.34 136.349 117.956 135.667C117.583 134.973 117.396 134.173 117.396 133.267C117.396 132.371 117.588 131.581 117.972 130.899C118.367 130.205 118.9 129.677 119.572 129.315C120.244 128.941 120.996 128.755 121.828 128.755C122.66 128.755 123.412 128.941 124.084 129.315C124.756 129.677 125.284 130.2 125.668 130.883C126.063 131.565 126.26 132.36 126.26 133.267C126.26 134.173 126.058 134.973 125.652 135.667C125.258 136.349 124.719 136.877 124.036 137.251C123.354 137.624 122.596 137.811 121.764 137.811ZM121.764 136.531C122.287 136.531 122.778 136.408 123.236 136.163C123.695 135.917 124.063 135.549 124.34 135.059C124.628 134.568 124.772 133.971 124.772 133.267C124.772 132.563 124.634 131.965 124.356 131.475C124.079 130.984 123.716 130.621 123.268 130.387C122.82 130.141 122.335 130.019 121.812 130.019C121.279 130.019 120.788 130.141 120.34 130.387C119.903 130.621 119.551 130.984 119.284 131.475C119.018 131.965 118.884 132.563 118.884 133.267C118.884 133.981 119.012 134.584 119.268 135.075C119.535 135.565 119.887 135.933 120.324 136.179C120.762 136.413 121.242 136.531 121.764 136.531ZM131.896 133.251C131.896 132.355 132.078 131.571 132.44 130.899C132.803 130.216 133.299 129.688 133.928 129.315C134.568 128.941 135.283 128.755 136.072 128.755C136.755 128.755 137.39 128.915 137.976 129.235C138.563 129.544 139.011 129.955 139.32 130.467V125.827H140.792V137.667H139.32V136.019C139.032 136.541 138.606 136.973 138.04 137.315C137.475 137.645 136.814 137.811 136.056 137.811C135.278 137.811 134.568 137.619 133.928 137.235C133.299 136.851 132.803 136.312 132.44 135.619C132.078 134.925 131.896 134.136 131.896 133.251ZM139.32 133.267C139.32 132.605 139.187 132.029 138.92 131.539C138.654 131.048 138.291 130.675 137.832 130.419C137.384 130.152 136.888 130.019 136.344 130.019C135.8 130.019 135.304 130.147 134.856 130.403C134.408 130.659 134.051 131.032 133.784 131.523C133.518 132.013 133.384 132.589 133.384 133.251C133.384 133.923 133.518 134.509 133.784 135.011C134.051 135.501 134.408 135.88 134.856 136.147C135.304 136.403 135.8 136.531 136.344 136.531C136.888 136.531 137.384 136.403 137.832 136.147C138.291 135.88 138.654 135.501 138.92 135.011C139.187 134.509 139.32 133.928 139.32 133.267ZM151.253 132.947C151.253 133.224 151.237 133.517 151.205 133.827H144.197C144.25 134.691 144.544 135.368 145.077 135.859C145.621 136.339 146.277 136.579 147.045 136.579C147.674 136.579 148.197 136.435 148.613 136.147C149.04 135.848 149.338 135.453 149.509 134.963H151.077C150.842 135.805 150.373 136.493 149.669 137.027C148.965 137.549 148.09 137.811 147.045 137.811C146.213 137.811 145.466 137.624 144.805 137.251C144.154 136.877 143.642 136.349 143.269 135.667C142.896 134.973 142.709 134.173 142.709 133.267C142.709 132.36 142.89 131.565 143.253 130.883C143.616 130.2 144.122 129.677 144.773 129.315C145.434 128.941 146.192 128.755 147.045 128.755C147.877 128.755 148.613 128.936 149.253 129.299C149.893 129.661 150.384 130.163 150.725 130.803C151.077 131.432 151.253 132.147 151.253 132.947ZM149.749 132.643C149.749 132.088 149.626 131.613 149.381 131.219C149.136 130.813 148.8 130.509 148.373 130.307C147.957 130.093 147.493 129.987 146.981 129.987C146.245 129.987 145.616 130.221 145.093 130.691C144.581 131.16 144.288 131.811 144.213 132.643H149.749ZM76.4374 158.667L73.7814 154.107H72.0214V158.667H70.5654V147.515H74.1654C75.008 147.515 75.7174 147.659 76.2934 147.947C76.88 148.235 77.3174 148.624 77.6054 149.115C77.8934 149.605 78.0374 150.165 78.0374 150.795C78.0374 151.563 77.8134 152.24 77.3654 152.827C76.928 153.413 76.2667 153.803 75.3814 153.995L78.1814 158.667H76.4374ZM72.0214 152.939H74.1654C74.9547 152.939 75.5467 152.747 75.9414 152.363C76.336 151.968 76.5334 151.445 76.5334 150.795C76.5334 150.133 76.336 149.621 75.9414 149.259C75.5574 148.896 74.9654 148.715 74.1654 148.715H72.0214V152.939ZM88.2997 153.947C88.2997 154.224 88.2837 154.517 88.2517 154.827H81.2437C81.2971 155.691 81.5904 156.368 82.1237 156.859C82.6677 157.339 83.3237 157.579 84.0917 157.579C84.7211 157.579 85.2437 157.435 85.6597 157.147C86.0864 156.848 86.3851 156.453 86.5557 155.963H88.1237C87.8891 156.805 87.4197 157.493 86.7157 158.027C86.0117 158.549 85.1371 158.811 84.0917 158.811C83.2597 158.811 82.5131 158.624 81.8517 158.251C81.2011 157.877 80.6891 157.349 80.3157 156.667C79.9424 155.973 79.7557 155.173 79.7557 154.267C79.7557 153.36 79.9371 152.565 80.2997 151.883C80.6624 151.2 81.1691 150.677 81.8197 150.315C82.4811 149.941 83.2384 149.755 84.0917 149.755C84.9237 149.755 85.6597 149.936 86.2997 150.299C86.9397 150.661 87.4304 151.163 87.7717 151.803C88.1237 152.432 88.2997 153.147 88.2997 153.947ZM86.7957 153.643C86.7957 153.088 86.6731 152.613 86.4277 152.219C86.1824 151.813 85.8464 151.509 85.4197 151.307C85.0037 151.093 84.5397 150.987 84.0277 150.987C83.2917 150.987 82.6624 151.221 82.1397 151.691C81.6277 152.16 81.3344 152.811 81.2597 153.643H86.7957ZM93.3256 158.811C92.6536 158.811 92.051 158.699 91.5176 158.475C90.9843 158.24 90.563 157.92 90.2536 157.515C89.9443 157.099 89.7736 156.624 89.7416 156.091H91.2456C91.2883 156.528 91.491 156.885 91.8536 157.163C92.227 157.44 92.7123 157.579 93.3096 157.579C93.8643 157.579 94.3016 157.456 94.6216 157.211C94.9416 156.965 95.1016 156.656 95.1016 156.283C95.1016 155.899 94.931 155.616 94.5896 155.435C94.2483 155.243 93.7203 155.056 93.0056 154.875C92.355 154.704 91.8216 154.533 91.4056 154.363C91.0003 154.181 90.6483 153.92 90.3496 153.579C90.0616 153.227 89.9176 152.768 89.9176 152.203C89.9176 151.755 90.051 151.344 90.3176 150.971C90.5843 150.597 90.963 150.304 91.4536 150.091C91.9443 149.867 92.5043 149.755 93.1336 149.755C94.1043 149.755 94.8883 150 95.4856 150.491C96.083 150.981 96.403 151.653 96.4456 152.507H94.9896C94.9576 152.048 94.771 151.68 94.4296 151.403C94.099 151.125 93.651 150.987 93.0856 150.987C92.563 150.987 92.147 151.099 91.8376 151.323C91.5283 151.547 91.3736 151.84 91.3736 152.203C91.3736 152.491 91.4643 152.731 91.6456 152.923C91.8376 153.104 92.0723 153.253 92.3496 153.371C92.6376 153.477 93.0323 153.6 93.5336 153.739C94.163 153.909 94.675 154.08 95.0696 154.251C95.4643 154.411 95.8003 154.656 96.0776 154.987C96.3656 155.317 96.515 155.749 96.5256 156.283C96.5256 156.763 96.3923 157.195 96.1256 157.579C95.859 157.963 95.4803 158.267 94.9896 158.491C94.5096 158.704 93.955 158.811 93.3256 158.811ZM99.333 148.475C99.0557 148.475 98.821 148.379 98.629 148.187C98.437 147.995 98.341 147.76 98.341 147.483C98.341 147.205 98.437 146.971 98.629 146.779C98.821 146.587 99.0557 146.491 99.333 146.491C99.5997 146.491 99.8237 146.587 100.005 146.779C100.197 146.971 100.293 147.205 100.293 147.483C100.293 147.76 100.197 147.995 100.005 148.187C99.8237 148.379 99.5997 148.475 99.333 148.475ZM100.037 149.899V158.667H98.581V149.899H100.037ZM101.974 154.251C101.974 153.355 102.156 152.571 102.518 151.899C102.881 151.216 103.377 150.688 104.006 150.315C104.646 149.941 105.361 149.755 106.15 149.755C106.833 149.755 107.468 149.915 108.054 150.235C108.641 150.544 109.089 150.955 109.398 151.467V146.827H110.87V158.667H109.398V157.019C109.11 157.541 108.684 157.973 108.118 158.315C107.553 158.645 106.892 158.811 106.134 158.811C105.356 158.811 104.646 158.619 104.006 158.235C103.377 157.851 102.881 157.312 102.518 156.619C102.156 155.925 101.974 155.136 101.974 154.251ZM109.398 154.267C109.398 153.605 109.265 153.029 108.998 152.539C108.732 152.048 108.369 151.675 107.91 151.419C107.462 151.152 106.966 151.019 106.422 151.019C105.878 151.019 105.382 151.147 104.934 151.403C104.486 151.659 104.129 152.032 103.862 152.523C103.596 153.013 103.462 153.589 103.462 154.251C103.462 154.923 103.596 155.509 103.862 156.011C104.129 156.501 104.486 156.88 104.934 157.147C105.382 157.403 105.878 157.531 106.422 157.531C106.966 157.531 107.462 157.403 107.91 157.147C108.369 156.88 108.732 156.501 108.998 156.011C109.265 155.509 109.398 154.928 109.398 154.267ZM121.331 153.947C121.331 154.224 121.315 154.517 121.283 154.827H114.275C114.328 155.691 114.622 156.368 115.155 156.859C115.699 157.339 116.355 157.579 117.123 157.579C117.752 157.579 118.275 157.435 118.691 157.147C119.118 156.848 119.416 156.453 119.587 155.963H121.155C120.92 156.805 120.451 157.493 119.747 158.027C119.043 158.549 118.168 158.811 117.123 158.811C116.291 158.811 115.544 158.624 114.883 158.251C114.232 157.877 113.72 157.349 113.347 156.667C112.974 155.973 112.787 155.173 112.787 154.267C112.787 153.36 112.968 152.565 113.331 151.883C113.694 151.2 114.2 150.677 114.851 150.315C115.512 149.941 116.27 149.755 117.123 149.755C117.955 149.755 118.691 149.936 119.331 150.299C119.971 150.661 120.462 151.163 120.803 151.803C121.155 152.432 121.331 153.147 121.331 153.947ZM119.827 153.643C119.827 153.088 119.704 152.613 119.459 152.219C119.214 151.813 118.878 151.509 118.451 151.307C118.035 151.093 117.571 150.987 117.059 150.987C116.323 150.987 115.694 151.221 115.171 151.691C114.659 152.16 114.366 152.811 114.291 153.643H119.827ZM117.075 147.755L114.851 149.115V147.963L117.075 146.635L119.283 147.963V149.115L117.075 147.755ZM127.525 149.739C128.592 149.739 129.456 150.064 130.117 150.715C130.778 151.355 131.109 152.283 131.109 153.499V158.667H129.669V153.707C129.669 152.832 129.45 152.165 129.013 151.707C128.576 151.237 127.978 151.003 127.221 151.003C126.453 151.003 125.84 151.243 125.381 151.723C124.933 152.203 124.709 152.901 124.709 153.819V158.667H123.253V149.899H124.709V151.147C124.997 150.699 125.386 150.352 125.877 150.107C126.378 149.861 126.928 149.739 127.525 149.739ZM132.943 154.267C132.943 153.36 133.125 152.571 133.487 151.899C133.85 151.216 134.351 150.688 134.991 150.315C135.642 149.941 136.383 149.755 137.215 149.755C138.293 149.755 139.178 150.016 139.871 150.539C140.575 151.061 141.039 151.787 141.263 152.715H139.695C139.546 152.181 139.253 151.76 138.815 151.451C138.389 151.141 137.855 150.987 137.215 150.987C136.383 150.987 135.711 151.275 135.199 151.851C134.687 152.416 134.431 153.221 134.431 154.267C134.431 155.323 134.687 156.139 135.199 156.715C135.711 157.291 136.383 157.579 137.215 157.579C137.855 157.579 138.389 157.429 138.815 157.131C139.242 156.832 139.535 156.405 139.695 155.851H141.263C141.029 156.747 140.559 157.467 139.855 158.011C139.151 158.544 138.271 158.811 137.215 158.811C136.383 158.811 135.642 158.624 134.991 158.251C134.351 157.877 133.85 157.349 133.487 156.667C133.125 155.984 132.943 155.184 132.943 154.267ZM143.958 148.475C143.681 148.475 143.446 148.379 143.254 148.187C143.062 147.995 142.966 147.76 142.966 147.483C142.966 147.205 143.062 146.971 143.254 146.779C143.446 146.587 143.681 146.491 143.958 146.491C144.225 146.491 144.449 146.587 144.63 146.779C144.822 146.971 144.918 147.205 144.918 147.483C144.918 147.76 144.822 147.995 144.63 148.187C144.449 148.379 144.225 148.475 143.958 148.475ZM144.662 149.899V158.667H143.206V149.899H144.662ZM146.599 154.251C146.599 153.355 146.781 152.571 147.143 151.899C147.506 151.216 148.002 150.688 148.631 150.315C149.271 149.941 149.981 149.755 150.759 149.755C151.527 149.755 152.194 149.92 152.759 150.251C153.325 150.581 153.746 150.997 154.023 151.499V149.899H155.495V158.667H154.023V157.035C153.735 157.547 153.303 157.973 152.727 158.315C152.162 158.645 151.501 158.811 150.743 158.811C149.965 158.811 149.261 158.619 148.631 158.235C148.002 157.851 147.506 157.312 147.143 156.619C146.781 155.925 146.599 155.136 146.599 154.251ZM154.023 154.267C154.023 153.605 153.89 153.029 153.623 152.539C153.357 152.048 152.994 151.675 152.535 151.419C152.087 151.152 151.591 151.019 151.047 151.019C150.503 151.019 150.007 151.147 149.559 151.403C149.111 151.659 148.754 152.032 148.487 152.523C148.221 153.013 148.087 153.589 148.087 154.251C148.087 154.923 148.221 155.509 148.487 156.011C148.754 156.501 149.111 156.88 149.559 157.147C150.007 157.403 150.503 157.531 151.047 157.531C151.591 157.531 152.087 157.403 152.535 157.147C152.994 156.88 153.357 156.501 153.623 156.011C153.89 155.509 154.023 154.928 154.023 154.267Z" fill="black"/>
<circle cx="115.069" cy="72.875" r="31.3472" fill="#283990"/>
<path d="M130.69 70.8143C130.951 70.8143 131.198 70.9168 131.39 71.1075L133.739 73.4025C133.833 73.493 133.908 73.6008 133.959 73.7197C134.009 73.8386 134.036 73.9661 134.036 74.095C134.036 74.2238 134.009 74.3514 133.959 74.4702C133.908 74.5891 133.833 74.6969 133.739 74.7874L131.898 76.586L128.13 72.9061L129.972 71.1075C130.163 70.923 130.421 70.818 130.69 70.8143ZM127.047 73.9439L130.815 77.6346L119.682 88.5486H115.883V84.8381L127.047 73.9439ZM114.041 61.0083L104.834 69.102V83.1528H112.2V86.75H101.151V72.3611H95.6271L114.041 56.1736L127.777 68.2477L123.249 72.6705V69.102L114.041 61.0083Z" fill="white"/>
<defs>
<filter id="filter0_d_148_18" x="0" y="0.861115" width="230.139" height="206.5" filterUnits="userSpaceOnUse" color-interpolation-filters="sRGB">
<feFlood flood-opacity="0" result="BackgroundImageFix"/>
<feColorMatrix in="SourceAlpha" type="matrix" values="0 0 0 0 0 0 0 0 0 0 0 0 0 0 0 0 0 0 127 0" result="hardAlpha"/>
<feOffset dy="4"/>
<feGaussianBlur stdDeviation="10"/>
<feComposite in2="hardAlpha" operator="out"/>
<feColorMatrix type="matrix" values="0 0 0 0 0 0 0 0 0 0 0 0 0 0 0 0 0 0 0.1 0"/>
<feBlend mode="normal" in2="BackgroundImageFix" result="effect1_dropShadow_148_18"/>
<feBlend mode="normal" in="SourceGraphic" in2="effect1_dropShadow_148_18" result="shape"/>
</filter>
<linearGradient id="paint0_linear_148_18" x1="20" y1="183.361" x2="213.433" y2="29.1785" gradientUnits="userSpaceOnUse">
<stop stop-color="white"/>
<stop offset="1" stop-color="white" stop-opacity="0"/>
</linearGradient>
</defs>
</svg>
