<svg width="200" height="66" viewBox="0 0 200 66" fill="none" xmlns="http://www.w3.org/2000/svg">
<path d="M0.805664 7.21312C1.47998 5.32648 2.24768 3.5128 3.85567 2.16818C5.58816 0.719326 7.53849 -0.0103133 9.80006 0.000110114C32.3535 0.020957 54.9173 0.0313811 77.4707 0.0313811C115.067 0.0313811 152.663 0.0105335 190.269 0.000110114C195.311 0.000110114 198.05 1.94929 199.793 6.76491C199.844 6.92126 199.938 7.06719 200 7.21312C200 24.2241 200 41.2352 200 58.2462C199.336 60.3309 198.475 62.3322 196.608 63.583C195.435 64.3752 194.066 64.8755 192.78 65.5009C131.199 65.5009 69.6175 65.5009 8.03646 65.5009C6.66707 64.7817 5.20431 64.198 3.93867 63.3224C2.19581 62.1237 1.46962 60.1745 0.816048 58.2462C0.805674 41.2352 0.805664 24.2241 0.805664 7.21312ZM100.439 2.14733C88.5919 2.14733 76.7342 2.14733 64.8869 2.14733C46.6698 2.14733 28.4632 2.14733 10.2462 2.15776C5.67115 2.15776 2.95312 4.88869 2.95312 9.44373C2.95312 24.9538 2.95312 40.4638 2.95312 55.9739C2.95312 60.6227 5.66078 63.3328 10.3084 63.3328C70.3437 63.3328 130.389 63.3328 190.425 63.3328C195.207 63.3328 197.873 60.6332 197.873 55.8071C197.873 40.2971 197.873 24.787 197.873 9.27696C197.873 4.98251 195.072 2.15776 190.777 2.14733C173.681 2.13691 156.584 2.13691 139.498 2.13691C126.468 2.14734 113.459 2.14733 100.439 2.14733Z" fill="black"/>
<path d="M51.5965 25.2881C44.6458 29.2907 44.9052 39.8496 52.9556 43.404C51.1608 47.3753 49.0653 51.1173 45.6522 53.9525C43.8574 55.4431 41.7722 55.7349 39.7078 54.703C36.2428 52.9623 32.9023 53.0248 29.4373 54.6821C26.9683 55.8704 24.6134 55.3284 22.663 53.4522C18.586 49.533 16.148 44.6757 14.9654 39.1721C14.3014 36.0868 14.2288 32.9702 15.0069 29.8744C16.3244 24.6314 21.3351 20.5246 26.2525 20.7748C27.6322 20.8477 29.0535 21.2021 30.3399 21.7233C33.1617 22.8699 35.8071 22.7969 38.6392 21.6295C43.2972 19.7116 47.8411 20.9311 51.1608 24.694C51.3268 24.8712 51.4513 25.0901 51.5965 25.2881Z" fill="black"/>
<path d="M85.2505 47.3539C85.2505 50.0015 85.2505 52.4823 85.2505 55.0777C84.1094 55.0777 83.0616 55.0777 81.8789 55.0777C81.8789 47.5937 81.8789 40.1201 81.8789 32.5735C82.7711 32.5735 83.7048 32.5735 84.7214 32.5735C84.8148 33.126 84.9082 33.6993 84.9704 34.0954C86.2257 33.4908 87.4498 32.6048 88.7881 32.313C92.585 31.4999 95.9567 33.7514 96.8489 37.5559C97.5335 40.4849 97.3987 43.3618 95.7077 45.9781C93.5499 49.3031 89.0682 50.1057 85.8834 47.7813C85.7277 47.6666 85.5617 47.5624 85.2505 47.3539ZM85.2402 40.8602C85.2402 41.4334 85.209 41.9338 85.2505 42.4341C85.3854 44.2478 86.6822 45.7904 88.3731 46.1969C90.1886 46.6243 92.0767 45.9051 92.917 44.2165C94.1308 41.767 94.2138 39.2237 92.7718 36.8367C91.309 34.4185 88.01 34.3351 86.2568 36.5657C85.2298 37.8686 85.1779 39.38 85.2402 40.8602Z" fill="black"/>
<path d="M102.607 47.3644C102.607 50.0954 102.607 52.5449 102.607 55.182C101.642 55.182 100.75 55.1924 99.847 55.182C98.9548 55.1716 99.2038 54.4732 99.2038 53.9937C99.1934 49.4908 99.1934 44.9879 99.1934 40.4954C99.1934 37.8791 99.1934 35.2629 99.1934 32.5736C100.158 32.5736 101.092 32.5736 102.077 32.5736C102.171 33.1573 102.254 33.7098 102.316 34.158C103.499 33.543 104.588 32.7612 105.802 32.3964C108.945 31.4583 112.12 32.855 113.531 35.8466C115.159 39.3176 115.076 42.8407 112.97 46.0928C110.895 49.2928 106.58 50.0433 103.416 47.9065C103.229 47.771 103.032 47.6459 102.607 47.3644ZM102.648 40.8081C102.638 41.2251 102.638 41.642 102.638 42.0589C102.669 44.227 104.028 45.9156 105.999 46.2387C108.094 46.5723 109.972 45.4465 110.667 43.3827C111.279 41.5482 111.331 39.7032 110.667 37.8687C109.92 35.8153 108.229 34.7208 106.258 35.0023C104.339 35.2733 102.773 37.0244 102.648 39.057C102.617 39.6407 102.648 40.2244 102.648 40.8081Z" fill="black"/>
<path d="M80.4482 48.7399C79.4004 48.7399 78.446 48.8129 77.5227 48.6982C77.2011 48.6565 76.7758 48.25 76.6513 47.9061C76.0081 46.1966 75.4998 44.4351 74.8358 42.7256C74.6906 42.3504 74.12 41.9334 73.7362 41.9126C71.8792 41.8292 70.0014 41.8188 68.1445 41.9022C67.7606 41.923 67.19 42.3504 67.0448 42.7256C66.4224 44.3517 65.8725 46.0194 65.3953 47.6976C65.1567 48.5419 64.7521 48.8442 63.9014 48.7608C63.1752 48.6878 62.4283 48.7504 61.5361 48.7504C62.252 46.6031 62.9159 44.5914 63.5902 42.5901C65.2812 37.5869 66.9929 32.594 68.6528 27.5804C68.9536 26.684 69.3167 26.2462 70.3749 26.2879C72.9062 26.3817 72.8958 26.3087 73.7258 28.7686C75.8317 34.9914 77.9377 41.2142 80.0436 47.437C80.1785 47.8227 80.2822 48.2083 80.4482 48.7399ZM68.1133 39.0149C70.0741 39.0149 71.8584 39.0149 73.7362 39.0149C72.7817 36.1276 71.8688 33.3758 70.8936 30.4572C69.9496 33.3758 69.0574 36.1276 68.1133 39.0149Z" fill="black"/>
<path d="M133.522 29.5821C131.634 29.3528 129.943 28.9879 128.252 28.9879C126.696 28.9879 125.638 30.0303 125.358 31.3019C125.067 32.6257 125.575 33.8244 127.007 34.6166C128.636 35.5234 130.379 36.2218 132.007 37.1078C133.875 38.1293 134.964 39.7241 135.099 41.913C135.338 45.6341 133.066 48.3755 129.175 48.9488C126.914 49.2823 124.725 49.0009 122.577 48.1775C121.613 47.8126 121.239 47.3332 121.737 46.3221C121.965 45.853 122.069 45.311 122.214 44.8315C123.625 45.2693 124.932 45.8218 126.281 46.0302C127.308 46.1866 128.439 46.0511 129.455 45.8009C130.721 45.4882 131.499 44.5605 131.686 43.2263C131.862 41.9234 131.509 40.7664 130.41 40.0472C129.445 39.4114 128.345 39.0153 127.318 38.4628C126.156 37.8374 124.891 37.3163 123.895 36.472C120.876 33.8974 121.281 29.3423 124.611 27.1847C127.194 25.5169 131.758 25.5274 134.279 27.2785C133.999 28.1228 133.719 28.9775 133.522 29.5821Z" fill="black"/>
<path d="M161.418 39.5048C161.397 46.7387 156.189 50.6683 150.629 48.5941C149.415 48.1354 148.201 47.2494 147.371 46.2279C144.425 42.6214 145.13 36.4091 148.73 33.7407C151.365 31.7915 154.291 31.5622 157.195 32.9589C160.328 34.4495 161.387 37.2638 161.418 39.5048ZM158.191 40.8182C157.787 39.411 157.61 38.1811 157.081 37.1387C155.577 34.1681 151.666 34.0013 150.017 36.8469C148.595 39.2964 148.564 41.8814 149.985 44.3517C151.49 46.968 154.892 47.1869 156.604 44.6957C157.403 43.5491 157.704 42.0586 158.191 40.8182Z" fill="black"/>
<path d="M184.584 45.7277C185.414 48.0939 185.362 48.1981 182.872 48.7297C182.27 48.8548 181.648 48.9486 181.036 49.0111C172.488 49.8137 170.527 42.6841 172.239 37.4203C173.349 34.0014 175.963 32.1043 179.397 32.1252C183.215 32.146 185.808 34.8665 186.036 39.0672C186.036 39.1089 186.036 39.1506 186.036 39.1922C186.119 41.4229 186.119 41.4333 183.878 41.4333C181.067 41.4333 178.245 41.4229 175.434 41.4229C175.361 41.4229 175.289 41.4854 175.216 41.5167C174.905 44.0079 176.72 46.1342 179.469 46.2176C181.119 46.2593 182.789 45.9049 184.584 45.7277ZM175.164 38.6711C177.695 38.6711 180.165 38.6711 182.623 38.6711C182.571 36.3467 181.42 34.9082 179.542 34.731C177.26 34.5226 175.693 35.8984 175.164 38.6711Z" fill="black"/>
<path d="M137.858 35.2732C136.976 35.2315 136.281 35.1898 135.523 35.1586C135.523 34.2621 135.523 33.4595 135.523 32.5423C136.281 32.5006 137.007 32.4693 137.733 32.438C137.837 31.4791 137.609 30.2491 138.107 29.7801C138.812 29.113 140.036 28.9983 141.229 28.5918C141.229 29.9781 141.229 31.1664 141.229 32.4589C142.588 32.4589 143.823 32.4589 145.161 32.4589C145.161 33.4074 145.161 34.2413 145.161 35.1898C143.895 35.1898 142.671 35.1898 141.229 35.1898C141.229 36.2322 141.229 37.1703 141.229 38.098C141.229 39.8908 141.208 41.6836 141.24 43.466C141.271 45.8426 141.955 46.4054 144.31 46.051C144.476 46.0302 144.642 46.0302 144.819 46.0198C144.881 46.1448 144.964 46.2387 144.974 46.3533C145.286 48.8132 145.109 49.0113 142.609 49.0947C139.839 49.1781 138.179 47.8022 138.003 44.9983C137.837 42.2986 137.899 39.5885 137.868 36.8888C137.858 36.3885 137.858 35.8986 137.858 35.2732Z" fill="black"/>
<path d="M166.844 48.6774C165.62 48.6774 164.593 48.6774 163.473 48.6774C163.473 43.2989 163.473 37.983 163.473 32.5836C164.365 32.5836 165.288 32.5836 166.294 32.5836C166.367 33.1569 166.44 33.7093 166.523 34.366C167.197 33.7927 167.778 33.2924 168.369 32.8025C168.494 32.6983 168.649 32.6357 168.805 32.5628C170.942 31.5413 171.834 32.0729 171.793 34.3764C171.782 34.6996 171.741 35.0227 171.71 35.325C168.442 35.6273 167.176 36.6175 166.917 39.1191C166.834 39.8592 166.855 40.6201 166.855 41.3601C166.834 43.7679 166.844 46.1758 166.844 48.6774Z" fill="black"/>
<path d="M42.1048 10.3086C43.0592 15.5516 37.9032 21.618 33.1726 20.9196C31.9588 16.5626 37.0837 10.4128 42.1048 10.3086Z" fill="black"/>
<path d="M70.582 18.0845C70.582 20.9822 68.6109 22.7646 65.6024 22.7646H62.542V13.3418H65.6024C68.6109 13.3418 70.582 15.1659 70.582 18.0845ZM65.6024 21.4929C67.812 21.4929 69.0051 20.2213 69.0051 18.074C69.0051 15.9164 67.8224 14.5926 65.6024 14.5926H64.0773V21.4929H65.6024Z" fill="black"/>
<path d="M71.8994 13.3105C71.8994 12.7581 72.3351 12.3203 72.885 12.3203C73.4244 12.3203 73.8601 12.7581 73.8601 13.3105C73.8601 13.863 73.4244 14.3008 72.885 14.3008C72.3351 14.3008 71.8994 13.863 71.8994 13.3105ZM72.1069 15.291H73.6423V22.7542H72.1069V15.291Z" fill="black"/>
<path d="M78.3626 22.8787C76.5783 22.8787 75.3334 21.8259 75.2607 20.4709H76.848C76.8999 21.0754 77.4808 21.5862 78.3315 21.5862C79.2237 21.5862 79.6905 21.2109 79.6905 20.6898C79.6905 19.2305 75.3749 20.0644 75.3749 17.3334C75.3749 16.1452 76.4849 15.1758 78.2382 15.1758C79.9188 15.1758 81.0288 16.0826 81.1118 17.5732H79.5764C79.5245 16.9269 79.0266 16.4787 78.1863 16.4787C77.3667 16.4787 76.931 16.8227 76.931 17.323C76.931 18.824 81.1222 17.9901 81.2051 20.6793C81.2051 21.9302 80.1159 22.8787 78.3626 22.8787Z" fill="black"/>
<path d="M86.9942 15.166C88.9445 15.166 90.4903 16.6878 90.4903 18.9914C90.4903 21.295 88.9549 22.8793 86.9942 22.8793C85.77 22.8793 84.8882 22.2539 84.4006 21.6702V26.3087H82.8652V15.2911H84.4006V16.3856C84.8778 15.7602 85.7804 15.166 86.9942 15.166ZM86.6622 16.5106C85.521 16.5106 84.411 17.4175 84.411 19.0227C84.411 20.6383 85.521 21.5452 86.6622 21.5452C87.8241 21.5452 88.9237 20.607 88.9237 19.0018C88.9237 17.3758 87.8137 16.5106 86.6622 16.5106Z" fill="black"/>
<path d="M95.2312 22.8793C93.1148 22.8793 91.5068 21.3575 91.5068 19.0123C91.5068 16.667 93.1771 15.166 95.2934 15.166C97.4098 15.166 99.08 16.667 99.08 19.0123C99.0904 21.3575 97.3682 22.8793 95.2312 22.8793ZM95.2312 21.5347C96.3827 21.5347 97.5135 20.7113 97.5135 19.0123C97.5135 17.3132 96.4242 16.5002 95.2727 16.5002C94.1108 16.5002 93.0733 17.3132 93.0733 19.0123C93.0733 20.7113 94.0796 21.5347 95.2312 21.5347Z" fill="black"/>
<path d="M105.885 18.5849C105.885 17.2194 105.138 16.5106 104.028 16.5106C102.898 16.5106 102.151 17.2194 102.151 18.5849V22.7543H100.615V15.2911H102.151V16.1458C102.649 15.5413 103.468 15.166 104.36 15.166C106.103 15.166 107.41 16.2605 107.41 18.3556V22.7647H105.885V18.5849V18.5849Z" fill="black"/>
<path d="M111.529 11.9658V13.2792L108.552 14.7593V13.6231L111.529 11.9658ZM109.371 15.2909H110.907V22.7541H109.371V15.2909Z" fill="black"/>
<path d="M113.697 15.291L115.803 21.3783L117.909 15.291H119.538L116.706 22.7542H114.87L112.048 15.291H113.697Z" fill="black"/>
<path d="M123.896 22.8793C121.769 22.8793 120.182 21.3575 120.182 19.0123C120.182 16.667 121.696 15.166 123.896 15.166C126.012 15.166 127.506 16.6461 127.506 18.8351C127.506 19.0956 127.495 19.3354 127.454 19.596H121.779C121.883 20.8259 122.765 21.5764 123.896 21.5764C124.84 21.5764 125.369 21.1178 125.649 20.5341H127.309C126.883 21.837 125.711 22.8793 123.896 22.8793ZM121.79 18.3556H125.898C125.867 17.209 124.964 16.4689 123.823 16.4689C122.786 16.4689 121.956 17.1777 121.79 18.3556Z" fill="black"/>
<path d="M129.02 12.7266H130.555V22.7539H129.02V12.7266Z" fill="black"/>
<path d="M141.355 18.5849C141.355 17.2194 140.608 16.5106 139.498 16.5106C138.367 16.5106 137.62 17.2194 137.62 18.5849V22.7543H136.085V15.2911H137.62V16.1458C138.118 15.5413 138.938 15.166 139.83 15.166C141.573 15.166 142.88 16.2605 142.88 18.3556V22.7647H141.355V18.5849V18.5849Z" fill="black"/>
<path d="M147.828 15.166C149.083 15.166 149.944 15.7602 150.401 16.3751V15.2911H151.957V22.7543H150.401V21.639C149.934 22.2748 149.042 22.8689 147.797 22.8689C145.867 22.8689 144.321 21.2846 144.321 18.981C144.321 16.6774 145.877 15.166 147.828 15.166ZM148.149 16.5106C147.008 16.5106 145.898 17.3758 145.898 18.9914C145.898 20.607 147.008 21.5347 148.149 21.5347C149.311 21.5347 150.401 20.6279 150.401 19.0123C150.411 17.4175 149.311 16.5106 148.149 16.5106Z" fill="black"/>
</svg>
