<svg width="94" height="85" viewBox="0 0 94 85" fill="none" xmlns="http://www.w3.org/2000/svg">
<g filter="url(#filter0_d_208_24)">
<rect x="17.8649" y="15.6217" width="57.973" height="48.6036" rx="5.85586" fill="url(#paint0_linear_208_24)" shape-rendering="crispEdges"/>
</g>
<path d="M51.694 29.9348H54.1659C54.8214 29.9348 55.4502 30.1952 55.9137 30.6588C56.3773 31.1224 56.6377 31.7511 56.6377 32.4067V49.7099C56.6377 50.3654 56.3773 50.9942 55.9137 51.4577C55.4502 51.9213 54.8214 52.1817 54.1659 52.1817H39.3346C38.679 52.1817 38.0503 51.9213 37.5867 51.4577C37.1231 50.9942 36.8627 50.3654 36.8627 49.7099V32.4067C36.8627 31.7511 37.1231 31.1224 37.5867 30.6588C38.0503 30.1952 38.679 29.9348 39.3346 29.9348H41.8064" stroke="white" stroke-width="2.47188" stroke-linecap="round" stroke-linejoin="round"/>
<path d="M50.4579 27.4629H43.0422C42.3596 27.4629 41.8063 28.0162 41.8063 28.6988V31.1707C41.8063 31.8533 42.3596 32.4067 43.0422 32.4067H50.4579C51.1405 32.4067 51.6938 31.8533 51.6938 31.1707V28.6988C51.6938 28.0162 51.1405 27.4629 50.4579 27.4629Z" stroke="white" stroke-width="2.47188" stroke-linecap="round" stroke-linejoin="round"/>
<circle cx="73.4955" cy="18.5496" r="5.85586" fill="#FF6262"/>
<defs>
<filter id="filter0_d_208_24" x="0.297312" y="0.396475" width="93.1081" height="83.7388" filterUnits="userSpaceOnUse" color-interpolation-filters="sRGB">
<feFlood flood-opacity="0" result="BackgroundImageFix"/>
<feColorMatrix in="SourceAlpha" type="matrix" values="0 0 0 0 0 0 0 0 0 0 0 0 0 0 0 0 0 0 127 0" result="hardAlpha"/>
<feOffset dy="2.34234"/>
<feGaussianBlur stdDeviation="8.78379"/>
<feComposite in2="hardAlpha" operator="out"/>
<feColorMatrix type="matrix" values="0 0 0 0 0 0 0 0 0 0 0 0 0 0 0 0 0 0 0.2 0"/>
<feBlend mode="normal" in2="BackgroundImageFix" result="effect1_dropShadow_208_24"/>
<feBlend mode="normal" in="SourceGraphic" in2="effect1_dropShadow_208_24" result="shape"/>
</filter>
<linearGradient id="paint0_linear_208_24" x1="17.8649" y1="15.6217" x2="75.8379" y2="64.2253" gradientUnits="userSpaceOnUse">
<stop stop-color="#FFBFBF"/>
<stop offset="0.510417" stop-color="#FC7A7A" stop-opacity="0.796875"/>
<stop offset="1" stop-color="#F48181" stop-opacity="0.2"/>
</linearGradient>
</defs>
</svg>
