<svg width="73" height="71" viewBox="0 0 73 71" fill="none" xmlns="http://www.w3.org/2000/svg">
<g filter="url(#filter0_d_212_42)">
<rect x="14.2207" y="12.4397" width="44.8119" height="42.5486" rx="4.52645" fill="url(#paint0_linear_212_42)" shape-rendering="crispEdges"/>
<rect x="14.447" y="12.666" width="44.3592" height="42.096" rx="4.30013" stroke="url(#paint1_linear_212_42)" stroke-width="0.452645" shape-rendering="crispEdges"/>
</g>
<path d="M40.5874 25.0002V27.4898M40.5874 32.4689V34.9584M40.5874 39.9375V42.4271M28.1397 25.0002C27.4794 25.0002 26.8462 25.2625 26.3793 25.7294C25.9124 26.1963 25.6501 26.8295 25.6501 27.4898V31.2241C26.3104 31.2241 26.9436 31.4864 27.4105 31.9533C27.8774 32.4201 28.1397 33.0534 28.1397 33.7136C28.1397 34.3739 27.8774 35.0071 27.4105 35.474C26.9436 35.9409 26.3104 36.2032 25.6501 36.2032V39.9375C25.6501 40.5978 25.9124 41.231 26.3793 41.6979C26.8462 42.1648 27.4794 42.4271 28.1397 42.4271H45.5665C46.2268 42.4271 46.86 42.1648 47.3269 41.6979C47.7938 41.231 48.0561 40.5978 48.0561 39.9375V36.2032C47.3958 36.2032 46.7626 35.9409 46.2957 35.474C45.8288 35.0071 45.5665 34.3739 45.5665 33.7136C45.5665 33.0534 45.8288 32.4201 46.2957 31.9533C46.7626 31.4864 47.3958 31.2241 48.0561 31.2241V27.4898C48.0561 26.8295 47.7938 26.1963 47.3269 25.7294C46.86 25.2625 46.2268 25.0002 45.5665 25.0002H28.1397Z" stroke="#F79421" stroke-width="2.48955" stroke-linecap="round" stroke-linejoin="round"/>
<defs>
<filter id="filter0_d_212_42" x="0.641347" y="0.670922" width="71.9706" height="69.7074" filterUnits="userSpaceOnUse" color-interpolation-filters="sRGB">
<feFlood flood-opacity="0" result="BackgroundImageFix"/>
<feColorMatrix in="SourceAlpha" type="matrix" values="0 0 0 0 0 0 0 0 0 0 0 0 0 0 0 0 0 0 127 0" result="hardAlpha"/>
<feOffset dy="1.81058"/>
<feGaussianBlur stdDeviation="6.78968"/>
<feComposite in2="hardAlpha" operator="out"/>
<feColorMatrix type="matrix" values="0 0 0 0 0 0 0 0 0 0 0 0 0 0 0 0 0 0 0.2 0"/>
<feBlend mode="normal" in2="BackgroundImageFix" result="effect1_dropShadow_212_42"/>
<feBlend mode="normal" in="SourceGraphic" in2="effect1_dropShadow_212_42" result="shape"/>
</filter>
<linearGradient id="paint0_linear_212_42" x1="14.2207" y1="12.4397" x2="51.3376" y2="54.9883" gradientUnits="userSpaceOnUse">
<stop stop-color="#585858"/>
<stop offset="1" stop-color="#656565" stop-opacity="0"/>
</linearGradient>
<linearGradient id="paint1_linear_212_42" x1="14.2207" y1="16.0609" x2="55.6377" y2="54.9883" gradientUnits="userSpaceOnUse">
<stop stop-color="#808080"/>
<stop offset="1" stop-color="#565656" stop-opacity="0"/>
</linearGradient>
</defs>
</svg>
