<svg width="176" height="162" viewBox="0 0 176 162" fill="none" xmlns="http://www.w3.org/2000/svg">
<g filter="url(#filter0_d_170_80)">
<rect x="20.1211" y="19.6445" width="136.018" height="122.551" rx="6.73357" fill="#283990"/>
</g>
<g filter="url(#filter1_d_170_80)">
<rect x="20" y="20" width="136" height="111" rx="6.73357" fill="url(#paint0_linear_170_80)" shape-rendering="crispEdges"/>
<rect x="20" y="20" width="136" height="111" rx="6.73357" stroke="#F3F3F3" stroke-width="0.673357" shape-rendering="crispEdges"/>
</g>
<path d="M74.3659 77.3371H94.9088C95.4041 77.3371 95.8791 77.1403 96.2293 76.7901C96.5796 76.4398 96.7763 75.9648 96.7763 75.4695C96.7763 74.9742 96.5796 74.4992 96.2293 74.149C95.8791 73.7988 95.4041 73.602 94.9088 73.602H79.9685C77.492 73.602 75.117 72.6182 73.3658 70.8671C71.6146 69.1159 70.6309 66.7408 70.6309 64.2643C70.6309 61.7878 71.6146 59.4128 73.3658 57.6616C75.117 55.9105 77.492 54.9267 79.9685 54.9267H83.7036V47.4565H91.1737V54.9267H100.511V62.3968H79.9685C79.4732 62.3968 78.9982 62.5936 78.648 62.9438C78.2977 63.294 78.101 63.769 78.101 64.2643C78.101 64.7596 78.2977 65.2347 78.648 65.5849C78.9982 65.9351 79.4732 66.1319 79.9685 66.1319H94.9088C97.3853 66.1319 99.7604 67.1157 101.512 68.8668C103.263 70.618 104.246 72.993 104.246 75.4695C104.246 77.946 103.263 80.3211 101.512 82.0723C99.7604 83.8234 97.3853 84.8072 94.9088 84.8072H91.1737V92.2773H83.7036V84.8072H74.3659V77.3371Z" fill="#283990"/>
<defs>
<filter id="filter0_d_170_80" x="1.26709" y="0.790524" width="173.726" height="160.259" filterUnits="userSpaceOnUse" color-interpolation-filters="sRGB">
<feFlood flood-opacity="0" result="BackgroundImageFix"/>
<feColorMatrix in="SourceAlpha" type="matrix" values="0 0 0 0 0 0 0 0 0 0 0 0 0 0 0 0 0 0 127 0" result="hardAlpha"/>
<feOffset/>
<feGaussianBlur stdDeviation="9.427"/>
<feComposite in2="hardAlpha" operator="out"/>
<feColorMatrix type="matrix" values="0 0 0 0 0 0 0 0 0 0 0 0 0 0 0 0 0 0 0.1 0"/>
<feBlend mode="normal" in2="BackgroundImageFix" result="effect1_dropShadow_170_80"/>
<feBlend mode="normal" in="SourceGraphic" in2="effect1_dropShadow_170_80" result="shape"/>
</filter>
<filter id="filter1_d_170_80" x="0.810055" y="0.809078" width="174.38" height="149.382" filterUnits="userSpaceOnUse" color-interpolation-filters="sRGB">
<feFlood flood-opacity="0" result="BackgroundImageFix"/>
<feColorMatrix in="SourceAlpha" type="matrix" values="0 0 0 0 0 0 0 0 0 0 0 0 0 0 0 0 0 0 127 0" result="hardAlpha"/>
<feOffset/>
<feGaussianBlur stdDeviation="9.427"/>
<feComposite in2="hardAlpha" operator="out"/>
<feColorMatrix type="matrix" values="0 0 0 0 0 0 0 0 0 0 0 0 0 0 0 0 0 0 0.1 0"/>
<feBlend mode="normal" in2="BackgroundImageFix" result="effect1_dropShadow_170_80"/>
<feBlend mode="normal" in="SourceGraphic" in2="effect1_dropShadow_170_80" result="shape"/>
</filter>
<linearGradient id="paint0_linear_170_80" x1="43.8747" y1="37.7187" x2="116.958" y2="122.41" gradientUnits="userSpaceOnUse">
<stop stop-color="#E2E7FF"/>
<stop offset="1" stop-color="#E2E7FF" stop-opacity="0.43"/>
</linearGradient>
</defs>
</svg>
