<svg width="175" height="171" viewBox="0 0 175 171" fill="none" xmlns="http://www.w3.org/2000/svg">
<g filter="url(#filter0_d_17_1337)">
<rect x="19.3457" y="29.4277" width="136.018" height="122.551" rx="6.73357" fill="#283990"/>
</g>
<g filter="url(#filter1_d_17_1337)">
<rect x="19.3457" y="20" width="136.018" height="121.878" rx="6.73357" fill="url(#paint0_linear_17_1337)" shape-rendering="crispEdges"/>
<rect x="19.3457" y="20" width="136.018" height="121.878" rx="6.73357" stroke="#F3F3F3" stroke-width="0.673357" shape-rendering="crispEdges"/>
</g>
<path d="M87.559 66.2085C84.2308 66.2084 80.9772 67.1948 78.2094 69.0432C75.4416 70.8917 73.2838 73.5191 72.0088 76.5934C70.7337 79.6677 70.3986 83.051 71.0458 86.3158C71.693 89.5805 73.2934 92.5801 75.6448 94.9356C76.0391 95.3307 76.2603 95.8663 76.2597 96.4245C76.2591 96.9827 76.0368 97.5178 75.6417 97.912C75.2465 98.3063 74.711 98.5275 74.1528 98.5269C73.5946 98.5263 73.0595 98.304 72.6652 97.9089C70.7128 95.9572 69.1647 93.6394 68.1096 91.0883C67.0545 88.5372 66.5132 85.8031 66.5166 83.0424C66.5166 71.4207 75.9373 62 87.559 62C99.1808 62 108.601 71.4207 108.601 83.0424C108.605 85.8031 108.064 88.5372 107.008 91.0883C105.953 93.6394 104.405 95.9572 102.453 97.9089C102.059 98.304 101.523 98.5263 100.965 98.5269C100.407 98.5275 99.8715 98.3063 99.4764 97.912C99.0813 97.5178 98.859 96.9827 98.8584 96.4245C98.8578 95.8663 99.079 95.3307 99.4733 94.9356C101.825 92.5801 103.425 89.5805 104.072 86.3158C104.719 83.051 104.384 79.6677 103.109 76.5934C101.834 73.5191 99.6765 70.8917 96.9087 69.0432C94.1409 67.1948 90.8873 66.2084 87.559 66.2085V66.2085ZM87.559 78.8339C86.4429 78.8339 85.3724 79.2773 84.5832 80.0666C83.7939 80.8558 83.3506 81.9263 83.3506 83.0424C83.3506 84.1586 83.7939 85.229 84.5832 86.0183C85.3724 86.8075 86.4429 87.2509 87.559 87.2509C88.6752 87.2509 89.7456 86.8075 90.5349 86.0183C91.3241 85.229 91.7675 84.1586 91.7675 83.0424C91.7675 81.9263 91.3241 80.8558 90.5349 80.0666C89.7456 79.2773 88.6752 78.8339 87.559 78.8339ZM79.1421 83.0424C79.1418 81.6581 79.4829 80.2951 80.1353 79.0741C80.7876 77.8532 81.731 76.812 82.882 76.0427C84.0329 75.2735 85.3558 74.8 86.7334 74.6642C88.111 74.5285 89.5009 74.7345 90.7798 75.2643C92.0588 75.794 93.1873 76.6309 94.0655 77.701C94.9437 78.7711 95.5444 80.0413 95.8144 81.399C96.0844 82.7568 96.0153 84.1601 95.6133 85.4848C95.2113 86.8094 94.4888 88.0145 93.5098 88.9932C93.3143 89.1887 93.1592 89.4208 93.0534 89.6763C92.9476 89.9317 92.8932 90.2055 92.8932 90.482C92.8932 90.7585 92.9476 91.0322 93.0534 91.2877C93.1592 91.5431 93.3143 91.7752 93.5098 91.9707C93.9047 92.3656 94.4402 92.5874 94.9986 92.5874C95.2751 92.5874 95.5488 92.5329 95.8043 92.4271C96.0597 92.3213 96.2918 92.1662 96.4873 91.9707C98.2531 90.205 99.4557 87.9554 99.9429 85.5063C100.43 83.0572 100.18 80.5186 99.2246 78.2115C98.269 75.9045 96.6508 73.9326 94.5745 72.5453C92.4982 71.1579 90.0572 70.4174 87.5601 70.4174C85.063 70.4174 82.6219 71.1579 80.5457 72.5453C78.4694 73.9326 76.8512 75.9045 75.8956 78.2115C74.94 80.5186 74.6901 83.0572 75.1773 85.5063C75.6645 87.9554 76.8671 90.205 78.6328 91.9707C78.8283 92.1661 79.0604 92.321 79.3158 92.4267C79.5712 92.5324 79.8449 92.5867 80.1213 92.5866C80.3977 92.5865 80.6713 92.532 80.9266 92.4261C81.182 92.3203 81.4139 92.1652 81.6093 91.9697C81.8047 91.7742 81.9596 91.5421 82.0653 91.2867C82.171 91.0313 82.2253 90.7576 82.2252 90.4812C82.2251 90.2048 82.1706 89.9312 82.0647 89.6759C81.9589 89.4205 81.8037 89.1886 81.6082 88.9932C80.8251 88.2129 80.204 87.2854 79.7808 86.2641C79.3575 85.2429 79.1405 84.1479 79.1421 83.0424V83.0424Z" fill="#283990"/>
<defs>
<filter id="filter0_d_17_1337" x="0.491695" y="10.5737" width="173.727" height="160.259" filterUnits="userSpaceOnUse" color-interpolation-filters="sRGB">
<feFlood flood-opacity="0" result="BackgroundImageFix"/>
<feColorMatrix in="SourceAlpha" type="matrix" values="0 0 0 0 0 0 0 0 0 0 0 0 0 0 0 0 0 0 127 0" result="hardAlpha"/>
<feOffset/>
<feGaussianBlur stdDeviation="9.427"/>
<feComposite in2="hardAlpha" operator="out"/>
<feColorMatrix type="matrix" values="0 0 0 0 0 0 0 0 0 0 0 0 0 0 0 0 0 0 0.1 0"/>
<feBlend mode="normal" in2="BackgroundImageFix" result="effect1_dropShadow_17_1337"/>
<feBlend mode="normal" in="SourceGraphic" in2="effect1_dropShadow_17_1337" result="shape"/>
</filter>
<filter id="filter1_d_17_1337" x="0.154781" y="0.810055" width="174.399" height="160.259" filterUnits="userSpaceOnUse" color-interpolation-filters="sRGB">
<feFlood flood-opacity="0" result="BackgroundImageFix"/>
<feColorMatrix in="SourceAlpha" type="matrix" values="0 0 0 0 0 0 0 0 0 0 0 0 0 0 0 0 0 0 127 0" result="hardAlpha"/>
<feOffset/>
<feGaussianBlur stdDeviation="9.427"/>
<feComposite in2="hardAlpha" operator="out"/>
<feColorMatrix type="matrix" values="0 0 0 0 0 0 0 0 0 0 0 0 0 0 0 0 0 0 0.1 0"/>
<feBlend mode="normal" in2="BackgroundImageFix" result="effect1_dropShadow_17_1337"/>
<feBlend mode="normal" in="SourceGraphic" in2="effect1_dropShadow_17_1337" result="shape"/>
</filter>
<linearGradient id="paint0_linear_17_1337" x1="38.9998" y1="44" x2="134.5" y2="127" gradientUnits="userSpaceOnUse">
<stop stop-color="#E2E7FF"/>
<stop offset="1" stop-color="#E2E7FF" stop-opacity="0.43"/>
</linearGradient>
</defs>
</svg>
