<svg width="176" height="162" viewBox="0 0 176 162" fill="none" xmlns="http://www.w3.org/2000/svg">
<g filter="url(#filter0_d_170_74)">
<rect x="20.3457" y="20.4277" width="136.018" height="122.551" rx="6.73357" fill="#283990"/>
</g>
<g filter="url(#filter1_d_170_74)">
<rect x="20" y="20" width="136" height="113" rx="6.73357" fill="url(#paint0_linear_170_74)" shape-rendering="crispEdges"/>
<rect x="20" y="20" width="136" height="113" rx="6.73357" stroke="#F3F3F3" stroke-width="0.673357" shape-rendering="crispEdges"/>
</g>
<path d="M88.56 57.2095C85.2318 57.2093 81.9781 58.1958 79.2103 60.0442C76.4426 61.8926 74.2848 64.52 73.0097 67.5944C71.7347 70.6687 71.3996 74.052 72.0468 77.3168C72.694 80.5815 74.2944 83.5811 76.6458 85.9366C77.0401 86.3317 77.2613 86.8673 77.2607 87.4254C77.2601 87.9836 77.0378 88.5187 76.6426 88.913C76.2475 89.3073 75.712 89.5285 75.1538 89.5279C74.5956 89.5273 74.0605 89.305 73.6662 88.9099C71.7138 86.9581 70.1657 84.6404 69.1106 82.0893C68.0555 79.5382 67.5141 76.804 67.5176 74.0434C67.5176 62.4217 76.9383 53.001 88.56 53.001C100.182 53.001 109.602 62.4217 109.602 74.0434C109.606 76.804 109.065 79.5382 108.009 82.0893C106.954 84.6404 105.406 86.9581 103.454 88.9099C103.06 89.305 102.524 89.5273 101.966 89.5279C101.408 89.5285 100.873 89.3073 100.477 88.913C100.082 88.5187 99.86 87.9836 99.8594 87.4254C99.8588 86.8673 100.08 86.3317 100.474 85.9366C102.826 83.5811 104.426 80.5815 105.073 77.3168C105.72 74.052 105.385 70.6687 104.11 67.5944C102.835 64.52 100.677 61.8926 97.9097 60.0442C95.1419 58.1958 91.8883 57.2093 88.56 57.2095V57.2095ZM88.56 69.8349C87.4439 69.8349 86.3734 70.2783 85.5842 71.0675C84.7949 71.8568 84.3515 72.9272 84.3515 74.0434C84.3515 75.1596 84.7949 76.23 85.5842 77.0192C86.3734 77.8085 87.4439 78.2519 88.56 78.2519C89.6762 78.2519 90.7466 77.8085 91.5359 77.0192C92.3251 76.23 92.7685 75.1596 92.7685 74.0434C92.7685 72.9272 92.3251 71.8568 91.5359 71.0675C90.7466 70.2783 89.6762 69.8349 88.56 69.8349ZM80.143 74.0434C80.1427 72.6591 80.4839 71.2961 81.1362 70.0751C81.7886 68.8542 82.732 67.8129 83.8829 67.0437C85.0339 66.2745 86.3567 65.801 87.7344 65.6652C89.112 65.5294 90.5019 65.7355 91.7808 66.2652C93.0598 66.7949 94.1883 67.6319 95.0665 68.702C95.9447 69.7721 96.5454 71.0423 96.8153 72.4C97.0853 73.7577 97.0163 75.1611 96.6143 76.4858C96.2123 77.8104 95.4898 79.0155 94.5108 79.9942C94.3153 80.1897 94.1602 80.4218 94.0544 80.6772C93.9486 80.9327 93.8941 81.2065 93.8941 81.4829C93.8941 81.7594 93.9486 82.0332 94.0544 82.2886C94.1602 82.5441 94.3153 82.7762 94.5108 82.9717C94.9057 83.3665 95.4412 83.5884 95.9996 83.5884C96.276 83.5884 96.5498 83.5339 96.8053 83.4281C97.0607 83.3223 97.2928 83.1672 97.4883 82.9717C99.2541 81.206 100.457 78.9564 100.944 76.5073C101.431 74.0581 101.181 71.5195 100.226 69.2125C99.27 66.9054 97.6517 64.9336 95.5755 63.5462C93.4992 62.1589 91.0582 61.4184 88.5611 61.4184C86.064 61.4184 83.6229 62.1589 81.5467 63.5462C79.4704 64.9336 77.8522 66.9054 76.8966 69.2125C75.941 71.5195 75.691 74.0581 76.1783 76.5073C76.6655 78.9564 77.868 81.206 79.6338 82.9717C79.8293 83.1671 80.0614 83.322 80.3168 83.4277C80.5722 83.5334 80.8459 83.5877 81.1223 83.5876C81.3987 83.5875 81.6723 83.533 81.9276 83.4271C82.1829 83.3213 82.4149 83.1661 82.6103 82.9706C82.8056 82.7751 82.9606 82.5431 83.0663 82.2877C83.1719 82.0323 83.2263 81.7586 83.2262 81.4822C83.2261 81.2058 83.1716 80.9321 83.0657 80.6768C82.9598 80.4215 82.8047 80.1896 82.6092 79.9942C81.8261 79.2139 81.205 78.2864 80.7818 77.2651C80.3585 76.2438 80.1414 75.1489 80.143 74.0434V74.0434Z" fill="#283990"/>
<defs>
<filter id="filter0_d_170_74" x="1.4917" y="1.57373" width="173.726" height="160.259" filterUnits="userSpaceOnUse" color-interpolation-filters="sRGB">
<feFlood flood-opacity="0" result="BackgroundImageFix"/>
<feColorMatrix in="SourceAlpha" type="matrix" values="0 0 0 0 0 0 0 0 0 0 0 0 0 0 0 0 0 0 127 0" result="hardAlpha"/>
<feOffset/>
<feGaussianBlur stdDeviation="9.427"/>
<feComposite in2="hardAlpha" operator="out"/>
<feColorMatrix type="matrix" values="0 0 0 0 0 0 0 0 0 0 0 0 0 0 0 0 0 0 0.1 0"/>
<feBlend mode="normal" in2="BackgroundImageFix" result="effect1_dropShadow_170_74"/>
<feBlend mode="normal" in="SourceGraphic" in2="effect1_dropShadow_170_74" result="shape"/>
</filter>
<filter id="filter1_d_170_74" x="0.810055" y="0.809078" width="174.38" height="151.382" filterUnits="userSpaceOnUse" color-interpolation-filters="sRGB">
<feFlood flood-opacity="0" result="BackgroundImageFix"/>
<feColorMatrix in="SourceAlpha" type="matrix" values="0 0 0 0 0 0 0 0 0 0 0 0 0 0 0 0 0 0 127 0" result="hardAlpha"/>
<feOffset/>
<feGaussianBlur stdDeviation="9.427"/>
<feComposite in2="hardAlpha" operator="out"/>
<feColorMatrix type="matrix" values="0 0 0 0 0 0 0 0 0 0 0 0 0 0 0 0 0 0 0.1 0"/>
<feBlend mode="normal" in2="BackgroundImageFix" result="effect1_dropShadow_170_74"/>
<feBlend mode="normal" in="SourceGraphic" in2="effect1_dropShadow_170_74" result="shape"/>
</filter>
<linearGradient id="paint0_linear_170_74" x1="39.6514" y1="42.2518" x2="128.88" y2="125.883" gradientUnits="userSpaceOnUse">
<stop stop-color="#E2E7FF"/>
<stop offset="1" stop-color="#E2E7FF" stop-opacity="0.43"/>
</linearGradient>
</defs>
</svg>
