<svg width="176" height="162" viewBox="0 0 176 162" fill="none" xmlns="http://www.w3.org/2000/svg">
<g filter="url(#filter0_d_170_77)">
<rect x="19.5195" y="19.6445" width="136.018" height="122.551" rx="6.73357" fill="#283990"/>
</g>
<g filter="url(#filter1_d_170_77)">
<rect x="20" y="20" width="136" height="111" rx="6.73357" fill="url(#paint0_linear_170_77)" shape-rendering="crispEdges"/>
<rect x="20" y="20" width="136" height="111" rx="6.73357" stroke="#F3F3F3" stroke-width="0.673357" shape-rendering="crispEdges"/>
</g>
<path d="M81.0807 92.9554C77.2065 91.7987 73.6978 89.6586 70.8961 86.7434C71.7976 85.6743 72.3595 84.3605 72.51 82.9702C72.6605 81.5798 72.3928 80.1762 71.7411 78.9389C71.0893 77.7016 70.0833 76.6869 68.8516 76.0247C67.6199 75.3624 66.2186 75.0827 64.8271 75.2213C64.51 73.6685 64.3507 72.0875 64.3516 70.5026C64.3516 68.0549 64.7263 65.6938 65.4244 63.4756H65.5227C66.7171 63.4759 67.8918 63.1719 68.936 62.5922C69.9801 62.0125 70.8593 61.1762 71.4905 60.1623C72.1217 59.1484 72.4841 57.9903 72.5434 56.7975C72.6027 55.6046 72.3571 54.4164 71.8296 53.3448C74.5755 50.7879 77.8963 48.9293 81.5117 47.9258C82.1001 49.081 82.9966 50.051 84.102 50.7284C85.2075 51.4057 86.4787 51.7641 87.7752 51.7637C89.0717 51.7641 90.3429 51.4057 91.4484 50.7284C92.5538 50.051 93.4503 49.081 94.0387 47.9258C97.654 48.9293 100.975 50.7879 103.721 53.3448C103.19 54.4239 102.944 55.6212 103.008 56.8223C103.072 58.0233 103.443 59.1879 104.086 60.2045C104.728 61.2211 105.621 62.0557 106.679 62.6284C107.736 63.2012 108.923 63.4928 110.126 63.4756C110.839 65.7497 111.201 68.1193 111.199 70.5026C111.199 72.1189 111.035 73.6976 110.723 75.2225C109.332 75.0839 107.931 75.3636 106.699 76.0258C105.467 76.6881 104.461 77.7028 103.809 78.9401C103.158 80.1774 102.89 81.581 103.04 82.9713C103.191 84.3617 103.753 85.6754 104.654 86.7446C101.852 89.6593 98.3438 91.799 94.4697 92.9554C94.0147 91.5374 93.1213 90.3005 91.9182 89.423C90.715 88.5455 89.2643 88.0727 87.7752 88.0727C86.286 88.0727 84.8354 88.5455 83.6322 89.423C82.4291 90.3005 81.5357 91.5374 81.0807 92.9554Z" stroke="#283990" stroke-width="4.68473" stroke-linejoin="round"/>
<path d="M87.7725 78.7012C88.8491 78.7012 89.9152 78.4892 90.9098 78.0772C91.9045 77.6652 92.8083 77.0613 93.5695 76.3C94.3308 75.5387 94.9347 74.635 95.3467 73.6403C95.7587 72.6456 95.9708 71.5796 95.9708 70.503C95.9708 69.4263 95.7587 68.3603 95.3467 67.3656C94.9347 66.371 94.3308 65.4672 93.5695 64.7059C92.8083 63.9446 91.9045 63.3407 90.9098 62.9287C89.9152 62.5167 88.8491 62.3047 87.7725 62.3047C85.5982 62.3047 83.5129 63.1684 81.9754 64.7059C80.438 66.2434 79.5742 68.3286 79.5742 70.503C79.5742 72.6773 80.438 74.7625 81.9754 76.3C83.5129 77.8375 85.5982 78.7012 87.7725 78.7012V78.7012Z" stroke="#283990" stroke-width="4.68473" stroke-linejoin="round"/>
<defs>
<filter id="filter0_d_170_77" x="0.665524" y="0.790524" width="173.726" height="160.259" filterUnits="userSpaceOnUse" color-interpolation-filters="sRGB">
<feFlood flood-opacity="0" result="BackgroundImageFix"/>
<feColorMatrix in="SourceAlpha" type="matrix" values="0 0 0 0 0 0 0 0 0 0 0 0 0 0 0 0 0 0 127 0" result="hardAlpha"/>
<feOffset/>
<feGaussianBlur stdDeviation="9.427"/>
<feComposite in2="hardAlpha" operator="out"/>
<feColorMatrix type="matrix" values="0 0 0 0 0 0 0 0 0 0 0 0 0 0 0 0 0 0 0.1 0"/>
<feBlend mode="normal" in2="BackgroundImageFix" result="effect1_dropShadow_170_77"/>
<feBlend mode="normal" in="SourceGraphic" in2="effect1_dropShadow_170_77" result="shape"/>
</filter>
<filter id="filter1_d_170_77" x="0.810055" y="0.809078" width="174.38" height="149.382" filterUnits="userSpaceOnUse" color-interpolation-filters="sRGB">
<feFlood flood-opacity="0" result="BackgroundImageFix"/>
<feColorMatrix in="SourceAlpha" type="matrix" values="0 0 0 0 0 0 0 0 0 0 0 0 0 0 0 0 0 0 127 0" result="hardAlpha"/>
<feOffset/>
<feGaussianBlur stdDeviation="9.427"/>
<feComposite in2="hardAlpha" operator="out"/>
<feColorMatrix type="matrix" values="0 0 0 0 0 0 0 0 0 0 0 0 0 0 0 0 0 0 0.1 0"/>
<feBlend mode="normal" in2="BackgroundImageFix" result="effect1_dropShadow_170_77"/>
<feBlend mode="normal" in="SourceGraphic" in2="effect1_dropShadow_170_77" result="shape"/>
</filter>
<linearGradient id="paint0_linear_170_77" x1="45.4761" y1="41.8171" x2="120.574" y2="126.25" gradientUnits="userSpaceOnUse">
<stop stop-color="#E2E7FF"/>
<stop offset="1" stop-color="#E2E7FF" stop-opacity="0.43"/>
</linearGradient>
</defs>
</svg>
