<svg width="200" height="66" viewBox="0 0 200 66" fill="none" xmlns="http://www.w3.org/2000/svg">
<path d="M199.194 58.2878C198.323 59.8304 197.638 61.519 196.539 62.8741C195.055 64.6982 192.897 65.4904 190.563 65.4904C166.173 65.5008 141.784 65.4799 117.384 65.4799C105.941 65.4799 94.4983 65.5008 83.0452 65.5008C58.7385 65.5008 34.4215 65.5008 10.1148 65.5008C4.6165 65.5008 2.00221 63.6558 0.155612 58.4754C0.134864 58.4024 0.0518708 58.3503 0 58.2878C0 41.2767 0 24.2657 0 7.2547C0.674321 5.89966 1.22415 4.4508 2.06446 3.21041C3.27824 1.41759 5.23895 0.646252 7.22042 0C68.8015 0 130.383 0 191.964 0C193.893 0.646252 195.843 1.36547 197.037 3.1166C197.908 4.38826 198.479 5.86839 199.184 7.2547C199.194 24.2657 199.194 41.2767 199.194 58.2878ZM99.6024 63.3223C105.91 63.3223 112.217 63.3223 118.525 63.3223C142.261 63.3223 165.997 63.3223 189.733 63.3014C190.708 63.3014 191.746 63.2076 192.659 62.8949C195.511 61.9151 197.068 59.4552 197.068 56.0676C197.078 40.9328 196.943 25.798 197.14 10.6632C197.213 4.96155 194.142 2.04299 188.613 2.05342C143.215 2.16807 97.818 2.11596 52.4207 2.11596C38.0628 2.11596 23.705 2.10553 9.34712 2.12638C4.87586 2.1368 2.14745 4.93028 2.14745 9.40193C2.14745 24.8703 2.14745 40.3386 2.14745 55.807C2.14745 60.6539 4.79286 63.3223 9.5961 63.3223C39.6086 63.3223 69.6106 63.3223 99.6024 63.3223Z" fill="black"/>
<path d="M11.7842 12.8105C18.5378 19.7004 25.2084 26.5173 31.9827 33.4281C31.5989 33.8554 31.2877 34.2307 30.9557 34.5642C25.0528 40.4743 19.1499 46.374 13.247 52.2736C12.1785 53.3472 11.307 53.1075 10.8921 51.6169C10.7676 51.1896 10.7572 50.7101 10.7572 50.2619C10.7468 38.7232 10.7468 27.1949 10.7468 15.6561C10.7364 14.6659 10.7053 13.6548 11.7842 12.8105Z" fill="black"/>
<path d="M74.1434 29.8004C73.438 30.4675 72.9296 30.9574 72.3383 31.5203C70.6162 29.8525 68.6036 29.0812 66.2383 29.3418C64.568 29.5294 63.1364 30.2174 61.9226 31.3639C59.5573 33.605 58.9349 37.6493 60.4703 40.5991C62.016 43.5906 65.2839 45.1229 68.6555 44.4558C71.664 43.8616 73.6558 41.6935 73.884 38.6186C71.6329 38.6186 69.392 38.6186 67.0786 38.6186C67.0786 37.7848 67.0786 37.1385 67.0786 36.2734C67.9293 36.2734 68.78 36.2734 69.6306 36.2734C71.498 36.2734 73.3653 36.3255 75.2223 36.2525C76.156 36.2213 76.4257 36.5444 76.4465 37.4616C76.5191 41.3287 75.046 44.3515 71.5187 45.9984C67.8152 47.7391 64.1427 47.416 60.8541 44.8623C56.86 41.7665 55.8952 35.6897 58.634 31.4577C61.3936 27.1946 67.0993 25.6727 71.5914 28.0284C72.4317 28.4454 73.1579 29.0916 74.1434 29.8004Z" fill="black"/>
<path d="M116.71 34.9075C116.741 34.376 116.772 33.959 116.803 33.4691C117.54 33.4691 118.224 33.4691 118.992 33.4691C119.034 33.6567 119.137 33.8861 119.137 34.1154C119.148 38.118 119.21 42.1101 119.127 46.1127C119.023 50.8762 115.195 53.7114 110.62 52.544C108.846 52.0958 107.539 50.9596 106.564 48.9375C107.259 48.6352 107.954 48.3329 108.628 48.0411C110.537 50.4176 112.197 51.0117 114.303 50.1466C116.108 49.4065 116.917 47.7284 116.679 44.9974C114.957 46.5818 112.996 47.5616 110.797 46.7381C109.51 46.2587 108.213 45.3414 107.352 44.2782C105.267 41.6932 105.63 37.2737 107.871 34.9388C110.288 32.3955 112.965 32.3642 116.71 34.9075ZM108.504 39.8482C108.452 42.7043 110.382 44.8932 112.799 44.7264C115.257 44.5492 116.876 42.4541 116.741 39.6085C116.627 37.0652 114.863 35.2307 112.56 35.2515C110.267 35.2619 108.556 37.2111 108.504 39.8482Z" fill="black"/>
<path d="M38.8101 26.5486C36.6938 28.6229 34.7538 30.5303 32.6894 32.5525C26.2574 25.9753 19.7631 19.346 13.2793 12.7167C13.3623 12.5916 13.4349 12.4666 13.5179 12.3311C21.9002 17.0529 30.2826 21.7643 38.8101 26.5486Z" fill="black"/>
<path d="M145.394 27.4242C147.925 27.4242 150.332 27.2783 152.718 27.4659C155.778 27.7056 157.894 30.2177 157.843 33.1883C157.78 36.1069 155.498 38.5251 152.479 38.7336C151.006 38.8378 149.512 38.7544 147.831 38.7544C147.831 40.172 147.831 41.4437 147.831 42.7153C147.831 43.9557 147.831 45.1961 147.831 46.4991C146.95 46.4991 146.213 46.4991 145.394 46.4991C145.394 40.1616 145.394 33.8554 145.394 27.4242ZM147.894 36.3988C149.056 36.3988 150.083 36.4092 151.11 36.3988C151.566 36.3988 152.023 36.3988 152.469 36.3362C154.025 36.1173 155.218 34.7414 155.259 33.1466C155.301 31.6352 154.222 30.0405 152.738 29.8737C151.162 29.6965 149.543 29.832 147.883 29.832C147.894 31.9896 147.894 34.0952 147.894 36.3988Z" fill="black"/>
<path d="M38.1458 39.7546C30.5416 43.9448 23.0929 48.0516 15.6443 52.1585C15.5924 52.0959 15.5509 52.0334 15.499 51.9709C17.3353 50.0842 19.1715 48.1976 21.0077 46.3214C24.6179 42.6523 28.2489 39.0041 31.8176 35.3038C32.6164 34.4699 33.1144 34.4491 33.8924 35.3142C35.2099 36.7944 36.6208 38.1807 38.1458 39.7546Z" fill="black"/>
<path d="M33.4883 33.7717C35.7291 31.5098 37.6068 29.5815 39.5364 27.7053C39.7439 27.5072 40.3352 27.4655 40.6153 27.6115C42.8873 28.831 45.1385 30.0714 47.3482 31.3848C48.7176 32.1978 48.7176 33.7926 47.3274 34.616C44.8584 36.0753 42.3478 37.4512 39.8269 38.8062C39.5468 38.9522 38.9658 38.9105 38.7376 38.7124C36.9948 37.1176 35.2934 35.4812 33.4883 33.7717Z" fill="black"/>
<path d="M174.825 46.4993C174.078 46.4993 173.394 46.4993 172.616 46.4993C172.574 46.0198 172.533 45.5821 172.481 44.9671C172.066 45.3423 171.786 45.6029 171.485 45.8635C170.022 47.1456 167.543 47.3645 165.624 46.3951C163.933 45.5404 163.134 44.0394 163.31 42.0798C163.497 39.9638 165.354 38.2335 167.864 38.0772C169.369 37.9938 170.883 38.2127 172.408 38.3065C172.564 37.1182 171.921 36.0446 170.582 35.5026C168.912 34.8251 167.325 35.3358 165.935 37.0765C165.271 36.7951 164.565 36.4928 163.87 36.1906C164.835 33.8244 166.993 32.7196 169.95 33.001C172.502 33.2512 174.576 34.8668 174.763 37.2642C175.002 40.2974 174.825 43.341 174.825 46.4993ZM169.14 39.9638C168.601 40.1515 167.615 40.2661 166.962 40.7977C166.412 41.2459 165.883 42.2257 165.987 42.8615C166.09 43.487 166.9 44.1957 167.574 44.498C168.995 45.1234 170.821 44.3834 171.817 43.0179C173.072 41.3085 172.782 40.5475 170.728 40.1515C170.323 40.0889 169.908 40.0576 169.14 39.9638Z" fill="black"/>
<path d="M127.893 40.464C127.976 42.5591 129.034 43.9975 130.777 44.5396C132.634 45.1128 134.097 44.5083 135.622 42.507C136.265 42.778 136.929 43.0594 137.593 43.3513C136.804 45.6444 134.595 47.0516 131.866 46.9891C129.127 46.9265 127.042 45.6966 125.974 43.1428C124.739 40.2243 125.071 37.3891 127.187 34.9708C128.961 32.9487 131.296 32.5526 133.785 33.2718C136.742 34.1161 138.526 37.1702 137.977 40.464C134.646 40.464 131.275 40.464 127.893 40.464ZM135.362 38.3168C135.124 36.451 133.9 35.3565 132.011 35.2523C130.02 35.148 128.557 36.2842 128.1 38.3168C130.528 38.3168 132.945 38.3168 135.362 38.3168Z" fill="black"/>
<path d="M84.2279 32.9796C88.1701 33.0109 90.9504 35.9607 90.8985 40.0884C90.857 44.1222 88.0352 46.9887 84.1242 46.9991C80.2339 46.9991 77.4121 43.9867 77.4536 39.8695C77.4951 35.8252 80.3169 32.9588 84.2279 32.9796ZM88.4191 39.9529C88.4087 37.2845 86.5413 35.2311 84.1449 35.2415C81.7485 35.2623 79.9123 37.3366 79.9226 40.0154C79.933 42.663 81.8522 44.7685 84.2072 44.7372C86.5932 44.706 88.4294 42.6108 88.4191 39.9529Z" fill="black"/>
<path d="M105.183 40.0571C105.152 44.0701 102.289 47.0095 98.4192 46.9887C94.4978 46.9679 91.6552 43.9659 91.6967 39.8903C91.7382 35.8044 94.6015 32.9275 98.5852 32.9692C102.434 33.0317 105.225 36.0233 105.183 40.0571ZM102.714 39.9216C102.683 37.2532 100.785 35.1998 98.3881 35.2519C95.9709 35.2936 94.1554 37.3679 94.1762 40.0363C94.1969 42.663 96.1265 44.7685 98.5022 44.7372C100.867 44.706 102.756 42.5483 102.714 39.9216Z" fill="black"/>
<path d="M188.426 33.5212C186.828 37.211 185.283 40.7967 183.737 44.3824C182.845 46.4462 181.942 48.4996 181.06 50.5739C180.189 52.6169 180.189 52.6169 177.803 52.1687C178.622 50.3758 179.401 48.583 180.262 46.8423C180.645 46.0709 180.656 45.4247 180.293 44.6221C178.643 40.9843 177.077 37.3153 175.469 33.6567C177.346 32.9479 178 33.2293 178.716 34.9596C179.743 37.4612 180.78 39.9524 181.901 42.6521C182.139 42.2143 182.316 41.9641 182.43 41.6931C183.301 39.5772 184.152 37.4508 185.013 35.3348C185.874 33.1876 185.864 33.1876 188.426 33.5212Z" fill="black"/>
<path d="M121.502 46.499C121.502 40.1094 121.502 33.845 121.502 27.4658C122.249 27.4658 122.975 27.4658 123.795 27.4658C123.795 33.7824 123.795 40.1094 123.795 46.499C123.027 46.499 122.342 46.499 121.502 46.499Z" fill="black"/>
<path d="M161.775 46.5091C160.976 46.5091 160.281 46.5091 159.492 46.5091C159.492 40.1612 159.492 33.8551 159.492 27.4551C160.229 27.4551 160.955 27.4551 161.775 27.4551C161.775 33.7821 161.775 40.0778 161.775 46.5091Z" fill="black"/>
<path d="M66.1454 17.8237C66.1454 20.7214 64.1744 22.5038 61.1658 22.5038H58.1055V13.0811H61.1658C64.1744 13.0811 66.1454 14.9052 66.1454 17.8237ZM61.1658 21.2426C63.3755 21.2426 64.5686 19.9709 64.5686 17.8237C64.5686 15.6661 63.3859 14.3423 61.1658 14.3423H59.6408V21.2426H61.1658Z" fill="black"/>
<path d="M67.4629 13.0498C67.4629 12.4974 67.8986 12.0596 68.4484 12.0596C68.9879 12.0596 69.4236 12.4974 69.4236 13.0498C69.4236 13.6022 68.9879 14.04 68.4484 14.04C67.8986 14.04 67.4629 13.6127 67.4629 13.0498ZM67.66 15.0302H69.1954V22.4934H67.66V15.0302Z" fill="black"/>
<path d="M73.9261 22.6189C72.1417 22.6189 70.8968 21.5662 70.8242 20.2111H72.4115C72.4633 20.8157 73.0443 21.3264 73.895 21.3264C74.7872 21.3264 75.254 20.9512 75.254 20.43C75.254 18.9707 70.9383 19.8046 70.9383 17.0737C70.9383 15.8854 72.0484 14.916 73.8016 14.916C75.4822 14.916 76.5923 15.8229 76.6752 17.3134H75.1399C75.088 16.6672 74.59 16.2189 73.7497 16.2189C72.9302 16.2189 72.4945 16.5629 72.4945 17.0632C72.4945 18.5642 76.6856 17.7303 76.7686 20.4196C76.7686 21.6704 75.6793 22.6189 73.9261 22.6189Z" fill="black"/>
<path d="M82.5576 14.9053C84.508 14.9053 86.0537 16.4271 86.0537 18.7307C86.0537 21.0342 84.5183 22.6186 82.5576 22.6186C81.3335 22.6186 80.4517 21.9932 79.9641 21.4095V26.0479H78.4287V15.0304H79.9641V16.1248C80.4413 15.5098 81.3439 14.9053 82.5576 14.9053ZM82.2153 16.2499C81.0741 16.2499 79.9641 17.1567 79.9641 18.7619C79.9641 20.3776 81.0741 21.2844 82.2153 21.2844C83.3772 21.2844 84.4769 20.3463 84.4769 18.7411C84.4872 17.115 83.3772 16.2499 82.2153 16.2499Z" fill="black"/>
<path d="M90.7946 22.6186C88.6783 22.6186 87.0703 21.0968 87.0703 18.7515C87.0703 16.4062 88.7406 14.9053 90.8569 14.9053C92.9732 14.9053 94.6435 16.4062 94.6435 18.7515C94.6538 21.1072 92.9213 22.6186 90.7946 22.6186ZM90.7946 21.274C91.9462 21.274 93.077 20.4505 93.077 18.7515C93.077 17.0525 91.9877 16.2395 90.8361 16.2395C89.6742 16.2395 88.6368 17.0525 88.6368 18.7515C88.6368 20.4505 89.6327 21.274 90.7946 21.274Z" fill="black"/>
<path d="M101.449 18.3242C101.449 16.9587 100.702 16.2499 99.5918 16.2499C98.461 16.2499 97.7141 16.9587 97.7141 18.3242V22.4935H96.1787V15.0304H97.7141V15.8851C98.2121 15.2805 99.0316 14.9053 99.9238 14.9053C101.667 14.9053 102.974 15.9997 102.974 18.0948V22.5039H101.449V18.3242V18.3242Z" fill="black"/>
<path d="M107.082 11.7158V13.0292L104.104 14.5093V13.3731L107.082 11.7158ZM104.924 15.0305H106.459V22.4936H104.924V15.0305Z" fill="black"/>
<path d="M109.26 15.0303L111.366 21.1176L113.472 15.0303H115.1L112.268 22.4934H110.432L107.61 15.0303H109.26Z" fill="black"/>
<path d="M119.448 22.6186C117.322 22.6186 115.734 21.0968 115.734 18.7515C115.734 16.4062 117.249 14.9053 119.448 14.9053C121.565 14.9053 123.059 16.3854 123.059 18.5743C123.059 18.8349 123.048 19.0746 123.007 19.3352H117.332C117.436 20.5652 118.318 21.3157 119.448 21.3157C120.392 21.3157 120.921 20.857 121.202 20.2733H122.861C122.446 21.5763 121.274 22.6186 119.448 22.6186ZM117.353 18.0948H121.461C121.43 16.9483 120.527 16.2082 119.386 16.2082C118.349 16.2082 117.508 16.917 117.353 18.0948Z" fill="black"/>
<path d="M124.573 12.4658H126.119V22.4932H124.584V12.4658H124.573Z" fill="black"/>
<path d="M136.918 18.3242C136.918 16.9587 136.171 16.2499 135.061 16.2499C133.93 16.2499 133.183 16.9587 133.183 18.3242V22.4935H131.647V15.0304H133.183V15.8851C133.681 15.2805 134.5 14.9053 135.393 14.9053C137.135 14.9053 138.443 15.9997 138.443 18.0948V22.5039H136.918V18.3242Z" fill="black"/>
<path d="M143.62 22.6186C141.503 22.6186 139.896 21.0968 139.896 18.7515C139.896 16.4062 141.566 14.9053 143.682 14.9053C145.798 14.9053 147.469 16.4062 147.469 18.7515C147.479 21.1072 145.747 22.6186 143.62 22.6186ZM143.62 21.274C144.771 21.274 145.902 20.4505 145.902 18.7515C145.902 17.0525 144.813 16.2395 143.661 16.2395C142.499 16.2395 141.462 17.0525 141.462 18.7515C141.462 20.4505 142.458 21.274 143.62 21.274Z" fill="black"/>
</svg>
