<svg width="36" height="36" viewBox="0 0 36 36" fill="none" xmlns="http://www.w3.org/2000/svg">
<path d="M32.0431 0H3.18923C2.34339 0 1.5322 0.332409 0.934104 0.924102C0.336007 1.51579 0 2.3183 0 3.15508V32.8487C0 33.6844 0.335609 34.486 0.933 35.077C1.53039 35.668 2.34062 36 3.18546 36H32.0431C32.4615 36.0005 32.8758 35.9195 33.2624 35.7615C33.6491 35.6036 34.0005 35.3719 34.2967 35.0796C34.5928 34.7873 34.8279 34.4402 34.9884 34.0581C35.149 33.6759 35.2319 33.2662 35.2324 32.8524V3.15508C35.2324 2.3183 34.8964 1.51579 34.2983 0.924102C33.7002 0.332409 32.889 0 32.0431 0ZM31.2628 17.9981C30.7056 19.0308 29.8569 19.8808 28.82 20.4446C27.7014 21.0378 26.4472 21.3358 25.1784 21.3099H21.1371V30.9541H17.8914V18.2741H25.2877C25.938 18.2898 26.5792 18.1202 27.1349 17.7856C27.6692 17.4443 28.0921 16.9573 28.3525 16.3833C28.6548 15.7377 28.8044 15.0323 28.7898 14.3209C28.8041 13.6048 28.6546 12.8947 28.3525 12.2437C28.0853 11.6631 27.65 11.1739 27.1018 10.8381C26.5536 10.5022 25.9171 10.3346 25.2726 10.3566L15.9499 10.3118V23.2678C15.9888 24.6967 15.7001 26.1158 15.1055 27.4186C14.5797 28.5224 13.7175 29.4354 12.6401 30.0292C11.4447 30.662 10.1051 30.9805 8.74966 30.9541C7.57544 30.9703 6.41364 30.7149 5.35685 30.2082C4.35138 29.72 3.48657 28.9889 2.84241 28.0825L5.50011 26.1506C5.79755 26.676 6.24636 27.1018 6.78937 27.3739C7.39842 27.6697 8.07153 27.8131 8.74966 27.7916C9.29766 27.8227 9.84573 27.7316 10.3534 27.525C10.861 27.3185 11.3153 27.0017 11.6825 26.5982C12.38 25.8038 12.7305 24.685 12.7268 23.2417V9.44287C13.1116 9.5767 13.5213 9.62609 13.9274 9.58762C14.3335 9.54914 14.7263 9.42372 15.0785 9.22006C15.4307 9.01639 15.7339 8.73936 15.967 8.40819C16.2002 8.07701 16.3577 7.69962 16.4287 7.30219H25.1859C26.4556 7.2765 27.7104 7.57719 28.8275 8.17487C29.8661 8.74323 30.715 9.59852 31.2703 10.6363C31.861 11.7748 32.1539 13.0416 32.1223 14.3209C32.1517 15.5986 31.8562 16.863 31.2628 17.9981Z" fill="#F79421"/>
<path d="M13.5712 8.59627C14.6996 8.59627 15.6144 7.69128 15.6144 6.57493C15.6144 5.45857 14.6996 4.55359 13.5712 4.55359C12.4428 4.55359 11.528 5.45857 11.528 6.57493C11.528 7.69128 12.4428 8.59627 13.5712 8.59627Z" fill="black"/>
</svg>
