<svg width="94" height="85" viewBox="0 0 94 85" fill="none" xmlns="http://www.w3.org/2000/svg">
<g filter="url(#filter0_d_208_42)">
<rect x="18.4417" y="18.1943" width="57.973" height="48.6036" rx="5.85586" fill="url(#paint0_linear_208_42)" shape-rendering="crispEdges"/>
</g>
<path d="M53.7232 38.2994C53.7232 36.6299 53.06 35.0287 51.8794 33.8482C50.6989 32.6676 49.0977 32.0044 47.4281 32.0044C45.7586 32.0044 44.1574 32.6676 42.9769 33.8482C41.7963 35.0287 41.1331 36.6299 41.1331 38.2994C41.1331 45.6437 37.9856 47.742 37.9856 47.742H56.8707C56.8707 47.742 53.7232 45.6437 53.7232 38.2994Z" stroke="white" stroke-width="2.81075" stroke-linecap="round" stroke-linejoin="round"/>
<path d="M49.2432 51.9387C49.0587 52.2567 48.794 52.5206 48.4754 52.7041C48.1569 52.8876 47.7957 52.9842 47.4281 52.9842C47.0605 52.9842 46.6994 52.8876 46.3808 52.7041C46.0623 52.5206 45.7975 52.2567 45.6131 51.9387" stroke="white" stroke-width="2.81075" stroke-linecap="round" stroke-linejoin="round"/>
<circle cx="73.4867" cy="21.1222" r="5.85586" fill="#F79421"/>
<defs>
<filter id="filter0_d_208_42" x="0.874094" y="0.626764" width="93.1081" height="83.7388" filterUnits="userSpaceOnUse" color-interpolation-filters="sRGB">
<feFlood flood-opacity="0" result="BackgroundImageFix"/>
<feColorMatrix in="SourceAlpha" type="matrix" values="0 0 0 0 0 0 0 0 0 0 0 0 0 0 0 0 0 0 127 0" result="hardAlpha"/>
<feOffset/>
<feGaussianBlur stdDeviation="8.78379"/>
<feComposite in2="hardAlpha" operator="out"/>
<feColorMatrix type="matrix" values="0 0 0 0 0 0 0 0 0 0 0 0 0 0 0 0 0 0 0.2 0"/>
<feBlend mode="normal" in2="BackgroundImageFix" result="effect1_dropShadow_208_42"/>
<feBlend mode="normal" in="SourceGraphic" in2="effect1_dropShadow_208_42" result="shape"/>
</filter>
<linearGradient id="paint0_linear_208_42" x1="18.4417" y1="18.1943" x2="96.9101" y2="82.316" gradientUnits="userSpaceOnUse">
<stop offset="0.286458" stop-color="#E89433"/>
<stop offset="1" stop-color="#FFE4C5" stop-opacity="0"/>
</linearGradient>
</defs>
</svg>
