<svg width="176" height="162" viewBox="0 0 176 162" fill="none" xmlns="http://www.w3.org/2000/svg">
<g filter="url(#filter0_d_170_79)">
<rect x="20.3457" y="19.6445" width="136.018" height="122.551" rx="6.73357" fill="#283990"/>
</g>
<g filter="url(#filter1_d_170_79)">
<rect x="20" y="20" width="136" height="111" rx="6.73357" fill="url(#paint0_linear_170_79)" shape-rendering="crispEdges"/>
<rect x="20" y="20" width="136" height="111" rx="6.73357" stroke="#F3F3F3" stroke-width="0.673357" shape-rendering="crispEdges"/>
</g>
<path d="M114.678 67.8731C115.087 67.8731 115.474 68.0338 115.774 68.3325L119.456 71.9284C119.603 72.0702 119.72 72.2392 119.799 72.4254C119.879 72.6117 119.92 72.8115 119.92 73.0134C119.92 73.2153 119.879 73.4151 119.799 73.6014C119.72 73.7876 119.603 73.9566 119.456 74.0984L116.57 76.9165L110.667 71.1506L113.553 68.3325C113.853 68.0434 114.256 67.8789 114.678 67.8731ZM108.971 72.7767L114.874 78.5595L97.4299 95.6598H91.4777V89.8461L108.971 72.7767ZM88.5925 52.5087L74.1664 65.1903V87.2055H85.7072V92.8417H68.3959V70.2967H59.7402L88.5925 44.9336L110.113 63.8517L103.019 70.7814V65.1903L88.5925 52.5087Z" fill="#283990"/>
<defs>
<filter id="filter0_d_170_79" x="1.4917" y="0.790524" width="173.726" height="160.259" filterUnits="userSpaceOnUse" color-interpolation-filters="sRGB">
<feFlood flood-opacity="0" result="BackgroundImageFix"/>
<feColorMatrix in="SourceAlpha" type="matrix" values="0 0 0 0 0 0 0 0 0 0 0 0 0 0 0 0 0 0 127 0" result="hardAlpha"/>
<feOffset/>
<feGaussianBlur stdDeviation="9.427"/>
<feComposite in2="hardAlpha" operator="out"/>
<feColorMatrix type="matrix" values="0 0 0 0 0 0 0 0 0 0 0 0 0 0 0 0 0 0 0.1 0"/>
<feBlend mode="normal" in2="BackgroundImageFix" result="effect1_dropShadow_170_79"/>
<feBlend mode="normal" in="SourceGraphic" in2="effect1_dropShadow_170_79" result="shape"/>
</filter>
<filter id="filter1_d_170_79" x="0.810055" y="0.809078" width="174.38" height="149.382" filterUnits="userSpaceOnUse" color-interpolation-filters="sRGB">
<feFlood flood-opacity="0" result="BackgroundImageFix"/>
<feColorMatrix in="SourceAlpha" type="matrix" values="0 0 0 0 0 0 0 0 0 0 0 0 0 0 0 0 0 0 127 0" result="hardAlpha"/>
<feOffset/>
<feGaussianBlur stdDeviation="9.427"/>
<feComposite in2="hardAlpha" operator="out"/>
<feColorMatrix type="matrix" values="0 0 0 0 0 0 0 0 0 0 0 0 0 0 0 0 0 0 0.1 0"/>
<feBlend mode="normal" in2="BackgroundImageFix" result="effect1_dropShadow_170_79"/>
<feBlend mode="normal" in="SourceGraphic" in2="effect1_dropShadow_170_79" result="shape"/>
</filter>
<linearGradient id="paint0_linear_170_79" x1="54.1495" y1="39.9956" x2="120.752" y2="125.383" gradientUnits="userSpaceOnUse">
<stop stop-color="#E2E7FF"/>
<stop offset="1" stop-color="#E2E7FF" stop-opacity="0.43"/>
</linearGradient>
</defs>
</svg>
