<svg width="94" height="85" viewBox="0 0 94 85" fill="none" xmlns="http://www.w3.org/2000/svg">
<g filter="url(#filter0_d_208_34)">
<rect x="18.3514" y="16.1943" width="57.973" height="48.6036" rx="5.85586" fill="url(#paint0_linear_208_34)" fill-opacity="0.64" shape-rendering="crispEdges"/>
</g>
<g clip-path="url(#clip0_208_34)">
<path d="M61.941 54.1842C61.941 54.1842 64.0271 54.1842 64.0271 52.098C64.0271 50.0119 61.941 43.7534 53.5964 43.7534C45.2518 43.7534 43.1656 50.0119 43.1656 52.098C43.1656 54.1842 45.2518 54.1842 45.2518 54.1842H61.941ZM45.2977 52.098C45.2822 52.0959 45.2669 52.0931 45.2518 52.0897C45.2538 51.5389 45.6001 49.941 46.8372 48.5015C47.9888 47.1518 50.0124 45.8396 53.5964 45.8396C57.1783 45.8396 59.2018 47.1539 60.3555 48.5015C61.5926 49.941 61.9368 51.541 61.941 52.0897L61.9243 52.0939C61.9146 52.0955 61.9048 52.0969 61.8951 52.098H45.2977V52.098ZM53.5964 39.5811C54.7029 39.5811 55.7642 39.1416 56.5466 38.3591C57.3291 37.5766 57.7687 36.5154 57.7687 35.4088C57.7687 34.3023 57.3291 33.241 56.5466 32.4586C55.7642 31.6761 54.7029 31.2365 53.5964 31.2365C52.4898 31.2365 51.4286 31.6761 50.6461 32.4586C49.8636 33.241 49.4241 34.3023 49.4241 35.4088C49.4241 36.5154 49.8636 37.5766 50.6461 38.3591C51.4286 39.1416 52.4898 39.5811 53.5964 39.5811ZM59.8548 35.4088C59.8548 36.2307 59.6929 37.0445 59.3784 37.8038C59.0639 38.5632 58.6029 39.2531 58.0217 39.8342C57.4406 40.4154 56.7507 40.8764 55.9914 41.1909C55.2321 41.5054 54.4182 41.6673 53.5964 41.6673C52.7745 41.6673 51.9607 41.5054 51.2014 41.1909C50.442 40.8764 49.7521 40.4154 49.171 39.8342C48.5898 39.2531 48.1288 38.5632 47.8143 37.8038C47.4998 37.0445 47.3379 36.2307 47.3379 35.4088C47.3379 33.749 47.9973 32.1571 49.171 30.9834C50.3447 29.8098 51.9365 29.1504 53.5964 29.1504C55.2562 29.1504 56.8481 29.8098 58.0217 30.9834C59.1954 32.1571 59.8548 33.749 59.8548 35.4088V35.4088ZM45.1182 44.3376C44.2838 44.0748 43.4235 43.902 42.5523 43.8223C42.0627 43.7757 41.5712 43.7527 41.0795 43.7534C32.7349 43.7534 30.6487 50.0119 30.6487 52.098C30.6487 53.4895 31.3434 54.1842 32.7349 54.1842H41.5301C41.2208 53.5329 41.0666 52.8189 41.0795 52.098C41.0795 49.991 41.8659 47.8381 43.3534 46.0399C43.8603 45.4265 44.4507 44.8528 45.1182 44.3376ZM40.9126 45.8396C39.6779 47.6947 39.0109 49.8696 38.9933 52.098H32.7349C32.7349 51.5556 33.077 49.9493 34.3203 48.5015C35.4573 47.1747 37.4329 45.8813 40.9126 45.8417V45.8396ZM33.7779 36.4519C33.7779 34.7921 34.4373 33.2002 35.611 32.0265C36.7847 30.8528 38.3765 30.1935 40.0364 30.1935C41.6962 30.1935 43.2881 30.8528 44.4618 32.0265C45.6355 33.2002 46.2948 34.7921 46.2948 36.4519C46.2948 38.1118 45.6355 39.7036 44.4618 40.8773C43.2881 42.051 41.6962 42.7104 40.0364 42.7104C38.3765 42.7104 36.7847 42.051 35.611 40.8773C34.4373 39.7036 33.7779 38.1118 33.7779 36.4519V36.4519ZM40.0364 32.2796C38.9298 32.2796 37.8686 32.7192 37.0861 33.5017C36.3037 34.2841 35.8641 35.3453 35.8641 36.4519C35.8641 37.5585 36.3037 38.6197 37.0861 39.4022C37.8686 40.1846 38.9298 40.6242 40.0364 40.6242C41.143 40.6242 42.2042 40.1846 42.9867 39.4022C43.7691 38.6197 44.2087 37.5585 44.2087 36.4519C44.2087 35.3453 43.7691 34.2841 42.9867 33.5017C42.2042 32.7192 41.143 32.2796 40.0364 32.2796Z" fill="white"/>
</g>
<circle cx="76.3242" cy="19.1222" r="5.85586" fill="#019BF1"/>
<defs>
<filter id="filter0_d_208_34" x="0.7838" y="0.969107" width="93.1081" height="83.7388" filterUnits="userSpaceOnUse" color-interpolation-filters="sRGB">
<feFlood flood-opacity="0" result="BackgroundImageFix"/>
<feColorMatrix in="SourceAlpha" type="matrix" values="0 0 0 0 0 0 0 0 0 0 0 0 0 0 0 0 0 0 127 0" result="hardAlpha"/>
<feOffset dy="2.34234"/>
<feGaussianBlur stdDeviation="8.78379"/>
<feComposite in2="hardAlpha" operator="out"/>
<feColorMatrix type="matrix" values="0 0 0 0 0 0 0 0 0 0 0 0 0 0 0 0 0 0 0.2 0"/>
<feBlend mode="normal" in2="BackgroundImageFix" result="effect1_dropShadow_208_34"/>
<feBlend mode="normal" in="SourceGraphic" in2="effect1_dropShadow_208_34" result="shape"/>
</filter>
<linearGradient id="paint0_linear_208_34" x1="18.3514" y1="16.1943" x2="76.3244" y2="64.7979" gradientUnits="userSpaceOnUse">
<stop offset="0.307292" stop-color="#2995D2"/>
<stop offset="1" stop-color="#94C4DF"/>
</linearGradient>
<clipPath id="clip0_208_34">
<rect x="30.6487" y="24.978" width="33.3784" height="33.3784" rx="5.85586" fill="white"/>
</clipPath>
</defs>
</svg>
