<svg width="18" height="14" viewBox="0 0 18 14" fill="none" xmlns="http://www.w3.org/2000/svg">
<path d="M6.03646 13.9792C5.69757 13.9792 5.37986 13.9258 5.08333 13.819C4.78681 13.714 4.51146 13.5344 4.25729 13.2802L0.698957 9.72187C0.232985 9.2559 0 8.66285 0 7.94271C0 7.22257 0.232985 6.62951 0.698957 6.16354C1.16493 5.69757 1.75798 5.46458 2.47812 5.46458C3.19826 5.46458 3.79132 5.69757 4.25729 6.16354L6.03646 7.94271L13.2802 0.698959C13.7462 0.232987 14.3392 0 15.0594 0C15.7795 0 16.3726 0.232987 16.8385 0.698959C17.3045 1.16493 17.5375 1.75799 17.5375 2.47813C17.5375 3.19827 17.3045 3.79132 16.8385 4.25729L7.81562 13.2802C7.56146 13.5344 7.28611 13.714 6.98958 13.819C6.69306 13.9258 6.37535 13.9792 6.03646 13.9792Z" fill="#283990"/>
</svg>
