<svg width="176" height="162" viewBox="0 0 176 162" fill="none" xmlns="http://www.w3.org/2000/svg">
<g filter="url(#filter0_d_170_76)">
<rect x="19.5195" y="20.4277" width="136.018" height="122.551" rx="6.73357" fill="#283990"/>
</g>
<g filter="url(#filter1_d_170_76)">
<rect x="20" y="20" width="136" height="113" rx="6.73357" fill="url(#paint0_linear_170_76)" shape-rendering="crispEdges"/>
<rect x="20" y="20" width="136" height="113" rx="6.73357" stroke="#F3F3F3" stroke-width="0.673357" shape-rendering="crispEdges"/>
</g>
<path d="M104.085 53.4619H71.5491C70.4261 53.4619 69.5156 54.3723 69.5156 55.4954V59.5624C69.5156 60.6855 70.4261 61.5959 71.5491 61.5959H104.085C105.208 61.5959 106.119 60.6855 106.119 59.5624V55.4954C106.119 54.3723 105.208 53.4619 104.085 53.4619Z" stroke="#283990" stroke-width="4.06702" stroke-linecap="round" stroke-linejoin="round"/>
<path d="M87.8176 83.9648C92.3099 83.9648 95.9517 80.3231 95.9517 75.8308C95.9517 71.3385 92.3099 67.6968 87.8176 67.6968C83.3253 67.6968 79.6836 71.3385 79.6836 75.8308C79.6836 80.3231 83.3253 83.9648 87.8176 83.9648Z" stroke="#283990" stroke-width="4.06702" stroke-linecap="round" stroke-linejoin="round"/>
<path d="M102.051 61.5962V75.8307C102.051 79.606 100.551 83.2266 97.8819 85.8961C95.2124 88.5656 91.5918 90.0653 87.8166 90.0653C84.0413 90.0653 80.4207 88.5656 77.7512 85.8961C75.0817 83.2266 73.582 79.606 73.582 75.8307V61.5962M87.8166 75.8307H87.8369" stroke="#283990" stroke-width="4.06702" stroke-linecap="round" stroke-linejoin="round"/>
<defs>
<filter id="filter0_d_170_76" x="0.665524" y="1.57373" width="173.726" height="160.259" filterUnits="userSpaceOnUse" color-interpolation-filters="sRGB">
<feFlood flood-opacity="0" result="BackgroundImageFix"/>
<feColorMatrix in="SourceAlpha" type="matrix" values="0 0 0 0 0 0 0 0 0 0 0 0 0 0 0 0 0 0 127 0" result="hardAlpha"/>
<feOffset/>
<feGaussianBlur stdDeviation="9.427"/>
<feComposite in2="hardAlpha" operator="out"/>
<feColorMatrix type="matrix" values="0 0 0 0 0 0 0 0 0 0 0 0 0 0 0 0 0 0 0.1 0"/>
<feBlend mode="normal" in2="BackgroundImageFix" result="effect1_dropShadow_170_76"/>
<feBlend mode="normal" in="SourceGraphic" in2="effect1_dropShadow_170_76" result="shape"/>
</filter>
<filter id="filter1_d_170_76" x="0.810055" y="0.809078" width="174.38" height="151.382" filterUnits="userSpaceOnUse" color-interpolation-filters="sRGB">
<feFlood flood-opacity="0" result="BackgroundImageFix"/>
<feColorMatrix in="SourceAlpha" type="matrix" values="0 0 0 0 0 0 0 0 0 0 0 0 0 0 0 0 0 0 127 0" result="hardAlpha"/>
<feOffset/>
<feGaussianBlur stdDeviation="9.427"/>
<feComposite in2="hardAlpha" operator="out"/>
<feColorMatrix type="matrix" values="0 0 0 0 0 0 0 0 0 0 0 0 0 0 0 0 0 0 0.1 0"/>
<feBlend mode="normal" in2="BackgroundImageFix" result="effect1_dropShadow_170_76"/>
<feBlend mode="normal" in="SourceGraphic" in2="effect1_dropShadow_170_76" result="shape"/>
</filter>
<linearGradient id="paint0_linear_170_76" x1="43.4763" y1="38.5432" x2="134.088" y2="129.746" gradientUnits="userSpaceOnUse">
<stop stop-color="#E2E7FF"/>
<stop offset="1" stop-color="#E2E7FF" stop-opacity="0.43"/>
</linearGradient>
</defs>
</svg>
